<?xml version="1.0" encoding="utf-8"?>
<!-- Generator: Adobe Illustrator 18.1.1, SVG Export Plug-In . SVG Version: 6.00 Build 0)  -->
<!DOCTYPE svg PUBLIC "-//W3C//DTD SVG 1.1//EN" "http://www.w3.org/Graphics/SVG/1.1/DTD/svg11.dtd">
<svg version="1.1" id="Layer_1" xmlns="http://www.w3.org/2000/svg" xmlns:xlink="http://www.w3.org/1999/xlink" x="0px" y="0px"
	 viewBox="256 346 100 100" enable-background="new 256 346 100 100" xml:space="preserve">
<g>
	<g>
		<path fill="#89360A" d="M297.8,389.4c-0.5,0-0.8-0.2-1.2-0.4c-2-1.3-1.9-4.4,0.3-5.5c2.3-1.2,5.3-0.7,7.2,1.2
			c0.9,0.9,1.6,2,1.8,3.4c0.1,0.8,0,1.5-0.1,2.3c-0.3,2.5-1.2,4.6-2.9,6.4c-1.4,1.5-3.2,2.6-5.1,3.4c-0.4,0.2-0.9,0.3-1.2,0.5
			c-0.1,0-0.2,0.2-0.2,0.2c0,1.8,1,3.3,2.7,3.8c1.2,0.4,2.3,0.1,3.2-0.7c0.2-0.2,0.3-0.2,0.5-0.1c0.4,0.2,0.8,0.3,1.1,0.5
			c0.6,0.4,1,1,1,1.7c0,0.5,0,0.9-0.2,1.3c-0.2,0.9-0.8,1.5-1.8,1.7c-1.8,0.3-3.6,0.1-5.1-0.9c-1.5-0.9-2.4-2.3-3-3.9
			c-0.4-1.1-0.6-2.2-0.8-3.2c0-0.2-0.1-0.3-0.2-0.5c-1-0.9-2.2-1.1-3.5-0.9c0,0.4,0.1,0.8,0.1,1.2c0.1,1.4,0.2,2.9-0.2,4.2
			c-0.2,1-0.5,1.9-1.2,2.6c-0.6,0.7-1.3,0.9-2.2,1c-1.7,0.2-3.2-0.3-4.7-1.2c-1.2-0.8-2.4-1.9-3.5-2.9c-1.2-1.2-2.4-2.3-3.8-3.3
			c-1.3-0.9-2.8-1.5-4.5-1.5c-0.5,0-0.9,0.1-1.4,0.2c-1,0.3-1.5,1.1-1.6,2.1c-0.1,0.9,0,1.9,0.4,2.7c0.5,1.1,1.2,1.6,2.4,1.7
			c0.3,0,0.5-0.1,0.7-0.2c0.1-0.1,0.2-0.2,0.2-0.2c0.6-0.6,1.2-0.5,1.5,0.3c0.4,0.9,0.4,1.9-0.1,2.7c-0.4,0.8-1.2,0.9-1.9,1
			c-1.4,0.1-2.5-0.6-3.6-1.5c-1-0.9-1.5-2.1-1.9-3.2c-1.5-4.1-0.7-7.9,1.9-11.3c1.9-2.4,4.2-4.2,7-5.6c2.4-1.2,4.9-2.1,7.5-2.5
			c2.1-0.3,4.2-0.2,6.3,0.5c3.3,1.2,4.6,5.1,3,8c-0.2,0.2-0.3,0.5-0.5,0.7c-0.1,0.1-0.1,0.2-0.1,0.3c0.6,1.2,1.5,1.9,2.9,2.2
			c0.9,0.2,1.3-0.1,1.8-0.9c0.3-0.5,0.6-1.2,1-1.6c1.7-2.1,3.9-3.7,6.4-4.7c0.6-0.2,0.6-0.2,0.7-0.9c0.1-2-1.5-2.9-3.2-2.5
			C298.7,387.3,297.8,388.3,297.8,389.4C297.9,389.3,297.9,389.3,297.8,389.4z M297,397.5c0.2,0,0.5,0,0.7-0.1
			c1.4-0.2,2.6-1,3.6-1.9c0.5-0.5,1.1-1,1.4-1.7c0.4-0.8,0.2-1.1-0.7-1.1c-0.6,0-1.1,0.3-1.5,0.6c-1.4,1-2.5,2.2-3.2,3.8
			C297.1,397.2,297.1,397.4,297,397.5z"/>
		<path fill="#89360A" d="M332.4,387.3c0.1,0,0.2,0,0.2,0c2.2,0.1,4.2,0.1,6.4,0.2c2,0.1,4,0.4,6,1.1c0.4,0.2,0.8,0.3,1.2,0.5
			c1.2,0.6,1.5,1.6,1.4,2.9c-0.2,1.1-0.8,1.8-1.7,2.2c-1,0.4-2.1,0.5-3.1,0.6c-1.4,0.2-2.8,0.3-4.2,0.4c-0.1,0-0.1,0-0.2,0.1
			c0.1,0.2,0.2,0.2,0.2,0.4c0.5,0.9,0.9,1.8,0.7,2.9c-0.2,0.9-0.5,1.4-1.4,1.7c-0.1,0-0.1,0.1-0.2,0.1c0.7,0.4,1,0.9,1,1.7
			c0,0.8-0.3,1.2-0.9,1.6c-0.6,0.4-1.2,0.5-1.9,0.6c-0.2,0.1-0.5,0.1-0.7,0.2c0.2,0.2,0.4,0.4,0.5,0.5c1.2,1.2,0.9,3.2-0.5,3.9
			c-0.4,0.2-0.9,0.3-1.2,0.3c-3.3,0.2-6.4-0.6-9.5-1.8c-1.9-0.8-3.9-1.5-5.9-2.1c-0.6-0.2-1.3-0.3-2-0.5c-1.2-0.2-2.2,0.2-2.9,1.1
			c-0.4,0.4-0.8,0.7-1.2,1.1c-0.8,0.6-1.6,0.8-2.6,0.5c-0.4-0.1-0.6-0.2-0.9-0.5c-0.6-0.7-0.8-1.6-1.1-2.5c-0.4-1.5-0.5-3-0.5-4.6
			c-0.1-2.8,0.2-5.5,0.7-8.2c0.2-1.1,0.5-2.1,1.1-3c0.2-0.4,0.5-0.8,0.8-1.1c0.7-0.8,1.5-0.9,2.5-0.5c0.8,0.4,1.3,0.9,1.9,1.5
			c0.4,0.4,0.7,0.8,1,1.2c0.2,0.2,0.3,0.2,0.5,0.2c1.9-0.1,3.7-0.8,5.3-1.9c1.3-0.9,2.5-2.1,3.6-3.2c1-0.9,2-1.8,3.2-2.5
			c1.2-0.6,2.4-0.9,3.7-0.9c0.8,0,1.2,0.5,1.5,1.1c0.3,0.9,0.3,1.8-0.1,2.6C332.9,386.3,332.6,386.8,332.4,387.3z M329.6,402.4
			L329.6,402.4c0.2-0.1,0.3-0.1,0.4-0.1c1.2,0.2,2.4,0.3,3.6,0.4c0.5,0.1,1.1,0.1,1.6-0.1c0.6-0.2,0.8-0.7,0.5-1.2
			c-0.2-0.2-0.4-0.5-0.7-0.7c-0.4-0.2-0.8-0.4-1.2-0.5c-0.9-0.3-1.8-0.5-2.6-0.8c-0.2-0.1-0.5-0.2-0.7-0.4v-0.1
			c0.2-0.1,0.4-0.2,0.6-0.2c0.8,0,1.6,0,2.4,0c0.8,0,1.5,0.1,2.3-0.1c0.8-0.1,1.2-0.7,1.2-1.4c-0.1-0.5-0.3-0.8-0.7-1.1
			c-0.7-0.5-1.5-0.9-2.2-1.1c-0.9-0.2-1.8-0.5-2.6-0.9c-0.2-0.1-0.4-0.2-0.6-0.4c0.2-0.1,0.2-0.1,0.4-0.1c1.1-0.2,2.1-0.3,3.2-0.4
			c2-0.2,4.1-0.2,6.1-0.2c1.2-0.1,2.5-0.2,3.6-0.7c0.8-0.3,0.9-1.1,0.4-1.6c-0.3-0.3-0.6-0.5-1-0.7c-1.1-0.5-2.2-0.7-3.4-0.8
			c-1.6-0.1-3.2-0.1-4.8,0c-2.6,0.2-5.1,0.4-7.6,0.6c-1.8,0.2-3.5,0.5-5.3,0.9c-1.9,0.4-3.8,1-5.6,1.9c-0.6,0.3-1,0.6-0.9,1.4
			c0,0,0,0.1,0,0.2c-0.2,2.5-0.3,5-0.5,7.5c0,0.2,0.1,0.4,0.2,0.5c1.2,0.5,2.5,1,3.7,1.5c1.2,0.5,2.5,0.8,3.7,1.2
			c2.7,0.9,5.5,1.9,8.3,2.3c0.8,0.2,1.5,0.2,2.2,0.1c0.3-0.1,0.5-0.2,0.6-0.5c0.4-0.8,0.2-1.4-0.5-1.9c-0.5-0.3-1-0.6-1.5-0.9
			c-0.5-0.3-1.2-0.6-1.7-1C330,403,329.8,402.6,329.6,402.4z M313.4,395.8c0-0.2,0-0.5,0-0.7c-0.1-0.9-0.2-1.9-0.3-2.9
			c-0.1-0.6-0.3-1.2-0.7-1.7c-0.5-0.6-1.2-0.6-1.7,0c-0.3,0.5-0.5,1-0.7,1.5c-0.5,1.5-0.6,3-0.8,4.6c-0.2,2.1-0.2,4.2,0.3,6.3
			c0.1,0.5,0.3,1.1,0.5,1.5c0.3,0.5,0.9,0.6,1.4,0.2c0.2-0.2,0.4-0.4,0.5-0.7c0.3-0.7,0.6-1.4,0.8-2.1
			C313.2,399.9,313.4,397.9,313.4,395.8z M324.9,387.9c0.5,0,1,0,1.5,0c1.4,0,2.6-0.3,3.7-1.2c0.5-0.3,0.9-0.7,1.1-1.2
			c0.2-0.5,0.1-0.9-0.2-1.2c-0.4-0.3-0.8-0.3-1.2-0.2c-1.9,0.6-3.4,1.8-4.6,3.3C325,387.7,325,387.7,324.9,387.9z"/>
	</g>
</g>
</svg>
