<?xml version="1.0" standalone="no"?>
<!DOCTYPE svg PUBLIC "-//W3C//DTD SVG 1.1//EN" "http://www.w3.org/Graphics/SVG/1.1/DTD/svg11.dtd" >
<svg>
<metadata>
Created by FontForge 20090622 at Tue May 26 09:41:06 2015
 By deploy user
Typeface &#194;&#169; The Monotype Corporation. Data &#194;&#169; The Monotype Corporation
</metadata>
<defs>
<font id="CentaurMT-Italic" horiz-adv-x="1366" >
  <font-face 
    font-family="Centaur MT"
    font-weight="400"
    font-style="italic"
    font-stretch="normal"
    units-per-em="2048"
    panose-1="2 3 5 2 6 4 0 1 1 2"
    ascent="1638"
    descent="-410"
    x-height="745"
    cap-height="1251"
    bbox="-399 -580 2183 1870"
    underline-thickness="102"
    underline-position="-103"
    slope="-12"
    unicode-range="U+0020-U+F002"
  />
<missing-glyph horiz-adv-x="1024" 
d="M51 0v1536h922v-1536h-922zM179 128h666v1280h-666v-1280z" />
    <glyph glyph-name=".notdef" horiz-adv-x="1024" 
d="M51 0v1536h922v-1536h-922zM179 128h666v1280h-666v-1280z" />
    <glyph glyph-name=".null" horiz-adv-x="0" 
 />
    <glyph glyph-name="nonmarkingreturn" horiz-adv-x="492" 
 />
    <glyph glyph-name="space" unicode=" " horiz-adv-x="492" 
 />
    <glyph glyph-name="exclam" unicode="!" horiz-adv-x="342" 
d="M481 1282q0 -4 -20.5 -80.5l-41 -150.5l-32.5 -119l-74 -266l-34 -142q-11 -23 -25 -104q-12 -3 -19 -3.5t-10 -0.5q-8 0 -14 4l100 590q0 5 16.5 95.5t20.5 119.5q0 31 9 39.5t40 13.5l21 4l32 6t25 4q6 0 6 -10zM246 72q0 -7 -13.5 -31t-34 -42.5t-42.5 -18.5
q-52 0 -52 69q0 53 34 86t52 33q15 0 28.5 -16t20.5 -39.5t7 -40.5z" />
    <glyph glyph-name="quotedbl" unicode="&#x22;" horiz-adv-x="918" 
d="M1020 1192q0 -60 -35 -123l-190 -383h-43l34 279q22 168 47.5 236.5t106.5 68.5q42 0 61 -24t19 -54zM586 1192q0 -60 -35 -123l-191 -383h-43l35 279q22 168 47.5 236.5t106.5 68.5q42 0 61 -24t19 -54z" />
    <glyph glyph-name="numbersign" unicode="#" 
d="M1384 406h-356l-90 -443h-94l92 443h-490l-88 -443h-96l92 443h-227v94h248l90 434h-338v94h358l95 445h92l-94 -445h487l92 445h94l-94 -445h227v-94h-245l-90 -434h335v-94zM1047 934h-490l-90 -434h489z" />
    <glyph glyph-name="dollar" unicode="$" horiz-adv-x="981" 
d="M1026 1122q-10 -13 -44 -68t-44 -75l-29 14q9 38 9 49q0 66 -53 111.5t-128 58.5l-98 -477q112 -84 167 -134.5t82 -104t27 -129.5q0 -124 -90.5 -245t-302.5 -121q-22 0 -33 1l-28 -149h-41l31 153q-101 19 -168.5 70.5t-139.5 144.5q16 27 44 80t42 86l25 -16
q-8 -23 -8 -49q0 -21 16.5 -65t44.5 -95q21 -33 36.5 -50t39.5 -32.5t45 -22.5t33 -10l117 571q-67 46 -119.5 93.5t-88.5 109.5t-36 137q0 80 47.5 148t132.5 106.5t193 38.5l20 105h39l-21 -107q64 -7 129.5 -31t151.5 -96zM698 1214q-71 0 -130.5 -23t-95.5 -68t-36 -109
q0 -47 18.5 -88.5t54.5 -78.5t97 -85zM829 291q0 80 -58.5 150.5t-160.5 150.5l-112 -549q11 -1 32 -1q125 0 192 51.5t87 108.5t20 89z" />
    <glyph glyph-name="percent" unicode="%" horiz-adv-x="1622" 
d="M1567 436q0 -80 -21.5 -157.5t-64.5 -145t-106.5 -108.5t-139.5 -41q-82 0 -134 44.5t-74.5 109.5t-22.5 130q0 94 38 194t113.5 168t179.5 68q98 0 149.5 -48.5t67 -107.5t15.5 -106zM1491 1368l-1108 -1384h-64l1108 1384h64zM817 1106q0 -106 -40.5 -211.5
t-117 -173.5t-176.5 -68q-117 0 -174 89t-57 196q0 95 39.5 194.5t115 167.5t179.5 68q138 0 184.5 -87.5t46.5 -174.5zM1468 485q0 70 -26.5 124.5t-91.5 54.5q-122 0 -185 -156.5t-63 -298.5q0 -117 42.5 -154t80.5 -37q61 0 118 75t91 184.5t34 207.5zM719 1155
q0 70 -27.5 124t-91.5 54q-84 0 -140.5 -79t-83 -185.5t-26.5 -189.5q0 -117 43.5 -154t81.5 -37q61 0 118 74.5t91.5 184.5t34.5 208z" />
    <glyph glyph-name="ampersand" unicode="&#x26;" horiz-adv-x="1473" 
d="M1522 729q0 -106 -84 -157t-205 -60q-49 -2 -88 -8q18 -66 18 -133q0 -139 -90.5 -226.5t-199 -125t-162.5 -37.5q-78 0 -204.5 30t-235.5 126t-109 272q0 202 119.5 290t226.5 107v4q-59 23 -102.5 78t-43.5 82q0 119 72 172q77 57 170.5 80.5t134.5 23.5q19 0 41.5 -16
t43 -36.5t26.5 -29.5q-8 -27 -17 -36t-28 -9q-17 0 -29 2q-34 48 -54 61t-71 13q-37 0 -81.5 -12.5t-55.5 -22.5q-11 -9 -36 -58t-25 -77q0 -21 21.5 -54t53.5 -63q49 -44 183 -75l-23 -56q-416 0 -416 -317q0 -112 48.5 -190t123 -121.5t160 -61.5t156.5 -18
q96 0 176.5 43.5t126 113t45.5 144.5q0 47 -31 133q-84 -5 -142.5 -14t-92 -32t-33.5 -67q0 -6 18.5 -42t18.5 -46q0 -9 -13 -35t-20 -26q-17 0 -42.5 27t-25.5 73q0 106 74 180q64 68 303 68q147 0 235.5 17.5t88.5 80.5q0 30 -25 43q8 11 16.5 19t22 14t29.5 6
q18 0 25.5 -7.5t7.5 -33.5z" />
    <glyph glyph-name="quotesingle" unicode="'" horiz-adv-x="469" 
d="M573 1192q0 -62 -34 -123l-191 -383h-43l35 279q14 115 26 172t42 95t86 38q41 0 60 -24t19 -54z" />
    <glyph glyph-name="parenleft" unicode="(" horiz-adv-x="641" 
d="M942 1366l-14 -68q-233 -93 -378.5 -253.5t-215 -333t-90.5 -309t-21 -228.5q0 -80 13.5 -166t47 -176t88 -176.5t134.5 -167.5l-17 -68q-160 156 -241.5 349t-81.5 397q0 124 33.5 292t119.5 348t240.5 331t382.5 229z" />
    <glyph glyph-name="parenright" unicode=")" horiz-adv-x="641" 
d="M557 621q0 -195 -71 -436t-244.5 -454t-460.5 -311l14 70q313 127 469.5 364t196 438t39.5 322q0 79 -11.5 158.5t-43 170t-87 180t-141.5 175.5l16 70q160 -154 242 -347t82 -400z" />
    <glyph glyph-name="asterisk" unicode="*" horiz-adv-x="725" 
d="M891 1059q-126 -59 -197 -131q41 -106 125 -201l-22 -27q-114 79 -213 105q-63 -75 -111 -209l-37 6q4 42 4 78q0 97 -18 160q-16 2 -31.5 3.5t-22.5 2t-32 0.5q-72 0 -152 -17l-10 35q117 54 197 131q-39 100 -127 201l24 27q118 -81 213 -105q66 78 111 209l35 -6
q-4 -42 -4 -78q0 -90 20 -160l41 -4t43 -2q67 0 152 17zM662 963q0 51 -38 90t-94 39q-53 0 -90 -39t-37 -88q0 -58 39 -96t90 -38q54 0 92 38t38 94z" />
    <glyph glyph-name="plus" unicode="+" 
d="M1343 522h-528v-522h-94v522h-524v94h524v529h94v-529h528v-94z" />
    <glyph glyph-name="comma" unicode="," horiz-adv-x="362" 
d="M266 -29q0 -46 -14.5 -102.5t-50 -117.5t-94.5 -107t-142 -64l12 41q74 21 118 68.5t62.5 103t18.5 98.5q0 59 -27 77t-75 22q0 6 -0.5 9t-1.5 7q54 22 116 113q44 -33 61 -64.5t17 -83.5z" />
    <glyph glyph-name="hyphen" unicode="-" horiz-adv-x="725" 
d="M717 485q0 -2 -45 -85t-47 -87q-2 0 -66 5t-117.5 6.5t-111.5 1.5q-66 0 -123 -7q-27 -20 -27 -28q-11 -11 -29.5 -28t-23.5 -17q-23 0 -23 10q0 2 11 19t20.5 29.5l20.5 27.5q44 90 92 90l266 -2q55 0 76 5.5t43 29.5q6 3 22 22t29 19q14 0 33 -11z" />
    <glyph glyph-name="period" unicode="." horiz-adv-x="385" 
d="M262 72q0 -7 -13.5 -31t-34 -42.5t-42.5 -18.5q-51 0 -51 69q0 53 34 86t52 33q22 0 38.5 -31t16.5 -65z" />
    <glyph glyph-name="slash" unicode="/" horiz-adv-x="1087" 
d="M1151 1520l-877 -1817h-92l875 1817h94z" />
    <glyph glyph-name="zero" unicode="0" horiz-adv-x="983" 
d="M1010 817q0 -128 -35.5 -273t-103.5 -274t-161.5 -207.5t-205.5 -78.5q-93 0 -167 61.5t-115.5 165t-41.5 225.5q0 183 63 377t183 324.5t279 130.5q104 0 172.5 -64.5t100.5 -167.5t32 -219zM899 973q0 109 -50 182.5t-144 73.5q-109 0 -188 -109t-126.5 -266.5
t-70.5 -313t-23 -237.5q0 -116 50 -199.5t151 -83.5q119 0 210 176t141 409.5t50 367.5z" />
    <glyph glyph-name="one" unicode="1" horiz-adv-x="983" 
d="M803 1262q-6 -34 -26 -122t-21 -96l-148 -632q-65 -292 -69 -324q79 -36 235 -59l10 -29h-223q-60 0 -107 -1.5t-81 -4.5q29 73 60.5 192.5t58.5 241.5l167 737q-54 30 -124 43t-119 15l10 30h184q98 0 193 9z" />
    <glyph glyph-name="two" unicode="2" horiz-adv-x="983" 
d="M954 944q0 -87 -32 -162t-96.5 -152t-180.5 -190l-148.5 -148l-207.5 -212q6 0 12 -0.5t14 -0.5q42 1 90.5 2t51.5 1l139 4l92 4q57 2 110.5 5.5t67.5 8.5q19 10 33 31l29 4l-76 -139l-565 -2q-113 0 -170 -14l12 36q86 41 244 207q187 196 271.5 296.5t130.5 200
t46 212.5q0 88 -34.5 148.5t-89.5 90t-113 29.5q-75 0 -147 -61.5t-115 -218.5l-35 18q18 86 66.5 160.5t121 119t162.5 44.5q83 0 155.5 -41.5t117 -115t44.5 -165.5z" />
    <glyph glyph-name="three" unicode="3" horiz-adv-x="983" 
d="M924 1071q0 -67 -41.5 -132t-95.5 -114.5t-103 -85.5q75 -6 123.5 -43.5t71 -91t22.5 -108.5q0 -97 -47.5 -189.5t-131 -167t-184 -116t-200.5 -41.5q-162 0 -211 120q26 13 51 13q9 0 25 -4q22 -43 67 -67t97 -24q84 0 186.5 58t171 153.5t68.5 202.5q0 217 -213 217
q-37 0 -115 -22l14 45q143 51 240.5 146t97.5 196q0 45 -21 82.5t-59 59.5t-90 22q-67 0 -117.5 -35t-113.5 -107l-15 -16q9 56 12 65t17 25q136 154 287 154q91 0 149 -53t58 -142z" />
    <glyph glyph-name="four" unicode="4" horiz-adv-x="983" 
d="M977 582l-23 -90l-184 -5l-59 -243q-22 -86 -56 -236l-2 -8t-2 -10q-51 -2 -127 -10l131 507l-499 -10q79 163 205 308t249.5 248.5t245.5 189.5q48 35 67.5 45t45.5 12l-162 -635q-1 -2 -9 -34t-10 -36zM827 1141l-4 4q-125 -85 -233.5 -183.5t-193.5 -200.5t-142 -196
l420 6l45 168l67 260q25 96 41 142z" />
    <glyph glyph-name="five" unicode="5" horiz-adv-x="983" 
d="M991 1284l-76 -127l-333 10l-62 -178q169 -36 272 -140t103 -251q0 -105 -48 -215.5t-133 -201.5t-196.5 -146t-232.5 -55q-115 0 -195 49l2 16q63 -29 141 -29q134 0 239.5 51t174 131t103 171.5t34.5 171.5q0 67 -24 131t-104 120t-228 85l137 383q33 -5 144 -13
q83 -6 135 -6q30 0 47 4t86 33z" />
    <glyph glyph-name="six" unicode="6" horiz-adv-x="983" 
d="M1001 1249q-1 -4 -1.5 -8t-2.5 -8q-16 1 -29.5 1.5t-33.5 0.5q-78 0 -156.5 -40t-150.5 -115t-133.5 -186.5t-102.5 -252.5l4 -4q100 100 248 100q61 0 113.5 -23t91.5 -64t61.5 -100.5t22.5 -127.5q0 -108 -52 -210.5t-144 -166t-199 -63.5q-99 0 -173 55.5
t-113.5 144.5t-39.5 185q0 195 99 407t255.5 353t315.5 141q54 0 120 -19zM807 475q0 72 -33 147.5t-147 75.5q-49 0 -116 -26.5t-126 -120.5t-59 -272q0 -102 54.5 -181.5t145.5 -79.5t155 71t95 176t31 210z" />
    <glyph glyph-name="seven" unicode="7" horiz-adv-x="983" 
d="M1061 1253q-168 -307 -309.5 -619t-141.5 -460q0 -123 70 -123q-28 -67 -105 -76q-30 25 -44.5 44t-14.5 59q0 82 58 243.5t135 332t153.5 323.5t83.5 166q-37 2 -153 2h-222q-122 0 -139 -4q-22 -2 -37 -25q-50 -90 -65 -90q-19 0 -19 14q0 2 2 6t2 5q16 24 45 93.5
t43 110.5q7 17 12 22t15 5q19 0 19 -14q0 -7 -7 -25q21 -2 82 -2h201q248 0 336 12z" />
    <glyph glyph-name="eight" unicode="8" horiz-adv-x="983" 
d="M930 1059q0 -186 -242 -322q114 -98 165.5 -169t51.5 -185q0 -69 -26.5 -140t-78.5 -130.5t-127.5 -95t-168.5 -35.5q-96 0 -165.5 40t-103.5 106.5t-34 141.5q0 112 54.5 194.5t125 132.5t160.5 97q-156 142 -156 273q0 54 24.5 109t68 98t102.5 68.5t127 25.5
q62 0 112.5 -24.5t80.5 -71t30 -113.5zM862 1057q0 77 -46.5 122.5t-119.5 45.5q-58 0 -108.5 -28.5t-79.5 -73.5t-29 -95q0 -64 48 -127t130 -137q205 111 205 293zM805 328q0 46 -18 88.5t-44.5 77t-49 57l-85.5 82.5l-37 35q-82 -48 -142 -94t-107.5 -125.5t-47.5 -186.5
q0 -97 56 -170.5t178 -73.5q94 0 161.5 47.5t101.5 119.5t34 143z" />
    <glyph glyph-name="nine" unicode="9" horiz-adv-x="983" 
d="M971 877q0 -133 -55 -291t-152 -296t-218.5 -222t-252.5 -84q-41 0 -115 16l6 18q23 -6 58 -6q86 0 168.5 46t153.5 126.5t129.5 189.5t97.5 238l-5 4q-58 -59 -125.5 -81.5t-119.5 -22.5q-82 0 -148.5 40t-104.5 111.5t-38 159.5q0 110 52.5 214t143.5 167.5t199 63.5
q66 0 125 -28.5t104.5 -81.5t71 -124t25.5 -157zM854 965q0 44 -11 89.5t-34 85t-61 64.5t-89 25q-89 0 -152.5 -65.5t-96.5 -173t-33 -228.5q0 -101 50 -156t128 -55q59 0 111.5 25.5t95.5 77.5t67.5 130t24.5 181z" />
    <glyph glyph-name="colon" unicode=":" horiz-adv-x="385" 
d="M358 571q0 -17 -29 -54.5t-61 -37.5q-51 0 -51 70q0 36 18 63t42.5 42.5t31.5 15.5q23 0 36 -33t13 -66zM242 72q0 -7 -13.5 -31t-34 -42.5t-42.5 -18.5q-52 0 -52 69q0 53 34 86t52 33q15 0 28.5 -16t20.5 -39.5t7 -40.5z" />
    <glyph glyph-name="semicolon" unicode=";" horiz-adv-x="385" 
d="M358 571q0 -17 -29 -54.5t-61 -37.5q-51 0 -51 70q0 36 18 63t42.5 42.5t31.5 15.5q23 0 36 -33t13 -66zM270 -43q0 -56 -24 -120t-73 -119.5t-116 -82.5l-14 33q82 47 111.5 116.5t29.5 111.5q0 57 -30 78t-78 30q55 63 82 109q63 -13 87.5 -58.5t24.5 -97.5z" />
    <glyph glyph-name="less" unicode="&#x3c;" 
d="M1341 45l-1142 485v84l1142 484v-103l-1019 -422l1019 -426v-102z" />
    <glyph glyph-name="equal" unicode="=" 
d="M1343 776h-1144v94h1144v-94zM1343 281h-1144v94h1144v-94z" />
    <glyph glyph-name="greater" unicode="&#x3e;" 
d="M1341 528l-1142 -483v102l1020 422l-1020 426v103l1142 -486v-84z" />
    <glyph glyph-name="question" unicode="?" horiz-adv-x="662" 
d="M741 961q0 -52 -26 -134.5t-56 -130.5q-36 -58 -75.5 -80.5t-100.5 -35.5q-112 -26 -163.5 -49t-79 -67t-47.5 -140l-31 2q4 66 12 108t33 86.5t80.5 82t142.5 59.5q82 22 128.5 42t77 65.5t30.5 125.5q0 72 -46 132t-135 60q-90 0 -141 -59l-20 2q-2 8 -2 25q0 35 32 82
q12 14 19 32q69 27 127 27q65 0 120.5 -29t88 -82t32.5 -124zM242 72q0 -7 -13.5 -31t-34 -42.5t-42.5 -18.5q-52 0 -52 69q0 53 34 86t52 33q15 0 28.5 -16t20.5 -39.5t7 -40.5z" />
    <glyph glyph-name="at" unicode="@" horiz-adv-x="2005" 
d="M2048 184q-51 -159 -147.5 -282.5t-224 -207t-269 -124.5t-285.5 -41q-260 0 -473 121t-334.5 337t-121.5 488q0 222 79.5 414t218.5 332.5t323 218.5t388 78q189 0 334.5 -60.5t239.5 -163.5t141 -234t47 -274q0 -128 -38.5 -260t-113.5 -244t-187 -180.5t-251 -68.5
q-162 0 -162 147q0 70 19 152l-4 4q-71 -88 -128 -147t-133.5 -107.5t-154.5 -48.5q-62 0 -107 39t-66.5 97.5t-21.5 111.5q0 160 96 336t235.5 293.5t256.5 117.5q151 0 182 -145h5l32 116l168 23l-125 -426q-1 -5 -8.5 -32.5l-13.5 -51.5l-43 -160t-24.5 -95.5t-8.5 -66.5
q0 -24 19.5 -51.5t58.5 -27.5q77 0 156.5 53t148 151.5t108 222.5t39.5 267q0 140 -49 261.5t-140.5 210t-218 137t-282.5 48.5q-204 0 -375.5 -85t-291.5 -231t-184 -329.5t-64 -370.5q0 -190 62 -347t176.5 -272t266.5 -175t330 -60q161 0 321 56t303 188.5t235 347.5h61z
M1350 825q0 65 -35 109.5t-98 44.5q-96 0 -196 -122.5t-167.5 -286.5t-67.5 -257q0 -57 35.5 -104t87.5 -47q67 0 146.5 59.5t145 155.5t107.5 215.5t42 232.5z" />
    <glyph glyph-name="A" unicode="A" horiz-adv-x="1130" 
d="M1128 39q-60 -45 -161 -45q-2 0 -19 1.5t-37 2.5t-31.5 1.5t-25.5 0.5h-76q-76 0 -151 -4l4 47q80 5 109.5 20.5t38.5 54.5t14 146l10 221q-51 7 -144 7q-106 0 -178 -7l-73 -133q-32 -56 -61 -115.5t-46.5 -103t-17.5 -57.5q0 -24 29 -30.5t91 -8.5l-6 -41
q-13 0 -47.5 1.5t-73.5 2.5l-59.5 1.5t-46.5 0.5h-174l12 35q59 2 88 5.5t48 13.5t34 29.5t47 74.5l51 86l115 205q8 12 57.5 94.5l144.5 233.5l188 290t153 213h29l-41 -1092q0 -10 -0.5 -16t-0.5 -13q0 -51 18.5 -82.5t72.5 -31.5q42 0 116 31v-39zM829 1034l-4 4
q-50 -71 -163 -250l-27 -44l-48 -79.5l-46.5 -76.5t-22.5 -37q54 -8 150 -8q61 0 137 6z" />
    <glyph glyph-name="B" unicode="B" horiz-adv-x="1024" 
d="M1034 352q0 -81 -44 -164.5t-142 -138.5t-246 -55q-20 0 -142 6t-145 6q-7 0 -75 -1.5l-137.5 -3t-77.5 -1.5v45q137 6 157 18q23 14 40 56.5t44 165.5l166 741q19 109 19 121q0 23 -6 33t-25.5 15t-42.5 7t-115 6l6 43h381q109 0 175 -15t120 -62q88 -73 88 -185
q0 -80 -42.5 -138t-98 -94t-111.5 -63q141 -58 197.5 -152.5t56.5 -189.5zM899 973q0 115 -73.5 169.5t-187.5 54.5q-21 0 -32 -1l-104 -469q84 -12 121 -12q116 0 196 56.5t80 201.5zM891 342q0 99 -47.5 173t-121.5 114.5t-151 40.5q-45 0 -84 -8l-84 -390
q-24 -112 -24 -133q0 -98 180 -98q88 0 164.5 37.5t122 105.5t45.5 158z" />
    <glyph glyph-name="C" unicode="C" horiz-adv-x="1260" 
d="M1401 1133q-33 -136 -35 -209l-49 -2v10q0 125 -65 190t-137 83t-126 18q-160 0 -311 -100.5t-243.5 -266t-92.5 -348.5q0 -226 126 -353.5t275 -127.5q54 0 131 25t146 73q23 17 38.5 30.5t33.5 35t32 40t43 60.5l45 -23q-50 -97 -79 -194q-231 -103 -408 -103
q-154 0 -277.5 69t-193.5 191.5t-70 274.5q0 143 57 279t164 246.5t257 176.5t327 66q217 0 412 -141z" />
    <glyph glyph-name="D" unicode="D" 
d="M1403 645q0 -124 -39 -226.5t-99 -176.5t-135 -127q-80 -55 -184.5 -82t-193.5 -33t-191 -6h-559v47q23 -1 62 -1q78 0 111 17t49 60.5t44 169.5l144 661q17 80 23.5 130.5t6.5 72.5q0 35 -24 42.5t-105 10.5l-123 4l9 43h424q190 0 344.5 -41t261.5 -141q46 -43 86 -104
t64 -141t24 -179zM1243 670q0 96 -29.5 188t-96.5 169.5t-178 124.5t-271 47q-36 0 -54 -1q-7 -34 -22.5 -97.5l-24.5 -101.5l-25.5 -105.5l-31.5 -133.5l-51 -244l-32.5 -157.5l-29.5 -148t-12 -85.5q0 -50 51.5 -66t196.5 -16q77 0 145.5 9.5t134 37.5t121.5 78
q61 55 107.5 130t74 170.5t27.5 201.5z" />
    <glyph glyph-name="E" unicode="E" horiz-adv-x="961" 
d="M1061 1253q0 -45 -8.5 -99.5t-18.5 -94.5h-30q-8 75 -14.5 98t-20.5 31q-25 16 -183 16q-45 0 -161 -6q-8 -20 -27.5 -89t-28 -103l-16.5 -66l-47 -209q252 0 280 19q16 11 56 110h47q-40 -124 -80 -307h-41q3 12 6.5 45.5t3.5 40.5q0 21 -11 29t-34 10t-108 4l-129 2
l-142 -616l199 -5q35 0 53.5 -0.5t40.5 -1.5q72 0 117.5 12.5t79.5 47t80 112.5l30 -18q-42 -140 -96 -219q-102 8 -321 8q-402 0 -533 -10l-6 47q119 10 144 14.5t40 14.5q23 17 39.5 64t32.5 120l176 754q25 100 25 147q0 27 -17.5 36.5t-58.5 14.5q-36 3 -81 3
q-53 0 -89 -1l8 45h844z" />
    <glyph glyph-name="F" unicode="F" horiz-adv-x="961" 
d="M1102 1253q-25 -131 -35 -176h-43q0 9 0.5 16t0.5 17q0 47 -16 64.5t-62 21.5t-173 4q-74 0 -107.5 -7t-45 -24.5t-23.5 -62.5l-15.5 -54.5t-13 -48.5t-14.5 -61l-49 -215q23 -1 72 -1q113 0 178 11q31 4 41 13t32 55q9 11 9 16h51q-50 -130 -80 -278h-45q12 33 12 88
q0 38 -63 43q-25 2 -217 2l-125 -549q-13 -52 -23 -74l234 -8l-13 -45q-23 1 -44 1.5t-64 0.5l-338 -2l-105 -2l15 45q77 0 109.5 6t54 30t36.5 73t43 174l148 641l25.5 126t17.5 89q-35 12 -75.5 16.5t-133.5 7.5l12 45z" />
    <glyph glyph-name="G" unicode="G" horiz-adv-x="1260" 
d="M1378 1135l-23 -104t-26 -107h-43q0 152 -88.5 224.5t-236.5 72.5q-167 0 -289.5 -65.5t-195.5 -169.5t-106.5 -225t-33.5 -233q0 -140 58 -254t164.5 -179.5t244.5 -65.5q100 0 192 49q1 1 3 10t3 12l33 133l6.5 26.5t5.5 24.5t3 21q0 27 -29 27q-17 0 -92.5 -10.5
t-83.5 -10.5l4 43l153.5 23l147.5 23l145 24l-4 -41q-57 -19 -72.5 -30t-21.5 -36l-25 -98q-8 -32 -8 -41q0 -20 19 -20q16 0 39 14l-4 -41q-103 -70 -228.5 -116t-253.5 -46q-152 0 -277.5 61.5t-200.5 189t-75 312.5q0 154 53 290t153.5 238.5t242.5 160t307 57.5
q88 0 168.5 -16t140 -39.5t95.5 -49t36 -38.5z" />
    <glyph glyph-name="H" unicode="H" horiz-adv-x="1409" 
d="M1579 1212q-81 0 -114.5 -14t-58 -74t-56.5 -209l-88 -403l-56.5 -266.5t-29.5 -190.5q84 -8 184 -16l-8 -39q-76 6 -240 6q-24 0 -145 -4t-119 -4l6 39q71 5 99.5 11t49 27t35 64t33.5 129l82 359q-162 8 -210 9t-110.5 2t-168.5 1q-84 0 -187 -2l-61 -281
q-5 -10 -19 -82t-26.5 -146.5t-12.5 -78.5q98 -10 185 -12l-13 -39q-112 6 -239 6q-136 0 -264 -10l6 43q71 4 105.5 10.5t54.5 24.5q27 27 96 323l139 629q0 -5 11.5 52.5t11.5 68.5q0 34 -31 48.5t-114 14.5h-34l7 39h98q13 0 86 -2t84 -2q116 0 233 6l-8 -39
q-66 -2 -96 -7t-49 -19.5t-31.5 -45.5t-26.5 -87l-16 -68l-61 -289l253 -6q15 -1 59.5 -1.5t81 -0.5h77.5q130 0 204 4l58 250q37 180 37 207q0 34 -25.5 48t-94.5 14q-29 0 -46 -1l6 39h401q26 0 76 4v-39z" />
    <glyph glyph-name="I" unicode="I" horiz-adv-x="641" 
d="M797 1249l-2 -43q-90 -2 -122 -10t-45 -32t-28 -91l-194 -860q-15 -63 -15 -94q0 -36 29.5 -58t122.5 -22q54 0 104 27l21 -21q-37 -26 -69 -38.5t-87 -12.5q-17 0 -130 6t-134 6q-16 0 -103 -2t-102 -2l12 41q77 2 101 5t44 14.5t32.5 37t23.5 72.5l207 918q10 40 10 55
q0 26 -11 37t-43.5 15t-131.5 9l12 45q80 -6 279 -6q17 0 110 2t109 2z" />
    <glyph glyph-name="J" unicode="J" horiz-adv-x="555" 
d="M729 1249l-10 -43q-68 -2 -96 -11.5t-45.5 -48t-36.5 -130.5l-166 -778q-43 -208 -83 -337.5t-94.5 -220.5t-135.5 -147t-203 -86l-82 111l45 10q51 -53 98 -53q31 0 72.5 31.5t81.5 98.5t65 162q60 249 66 277l196 922q17 68 17 131q0 33 -11 45t-40 15t-127 5l2 47h487
z" />
    <glyph glyph-name="K" unicode="K" horiz-adv-x="1300" 
d="M1317 1212q-79 -7 -112 -14.5t-61.5 -29.5t-88.5 -83q-78 -78 -168 -158t-156.5 -130t-126.5 -88q43 -88 140.5 -213.5t208 -249.5t145.5 -154q42 -34 90 -45.5t110 -11.5l2 -39q-48 4 -106 4q-49 0 -184 -6l-97 102l-102.5 112t-108 125.5t-105 135t-108.5 156.5
l-86 -392q-14 -61 -14 -104q0 -46 21.5 -69t48.5 -23q38 0 86 20l2 -43q-56 -18 -109 -18q-19 0 -81 2t-70 2q-22 0 -138 -2t-135 -2l2 43q9 0 16.5 -0.5t15.5 -0.5q103 0 142 25q23 14 38.5 60t60.5 242l143 634q27 117 27 152q0 53 -164 59l8 41h70q10 0 70 -2t77 -2
q7 0 19 0.5t29.5 1.5t36 1.5t32.5 0.5l82 2l-2 -39q-47 -5 -69.5 -21.5t-38.5 -62.5t-42 -155l-61 -273q163 100 287 207t189 183.5t65 93.5q0 26 -119 26l4 41q7 0 55.5 -1.5l95.5 -3t54 -1.5q60 0 180 4v-39z" />
    <glyph glyph-name="L" unicode="L" horiz-adv-x="938" 
d="M985 190q-66 -91 -108 -194h-213q-30 0 -184 2t-179 2q-22 0 -145 -2t-144 -2l15 43q21 0 82.5 6.5t85.5 17.5q24 12 84 275l118 532q21 87 35 172.5t14 106.5q0 19 -12.5 28t-44 15t-106.5 14l4 41q110 -1 258 -1q145 0 246 1l-7 -41q-141 -8 -161 -22q-11 -8 -21 -37.5
t-20.5 -70.5t-28.5 -120l-125 -567q-15 -68 -30 -155.5t-15 -110.5q0 -33 13 -50.5t60.5 -25.5t141.5 -8q89 0 139.5 11t96 44.5t112.5 110.5z" />
    <glyph glyph-name="M" unicode="M" horiz-adv-x="1430" 
d="M1552 1249l-10 -41q-135 -7 -162 -41q-21 -25 -47 -243l-14 -136l-53 -413q-10 -75 -17.5 -162.5t-7.5 -118.5t17.5 -41t66.5 -10t111 12v-43q-68 -14 -131 -14q-16 0 -100 2t-97 2q-17 0 -31 -0.5t-39.5 -1.5t-49 -2.5t-32.5 -1.5l9 43q52 3 78.5 16.5t42 50.5t26.5 121
l31 246l65 565l-4 4q-12 -29 -69 -139l-54 -102l-31.5 -63t-21.5 -46l-125 -246q-10 -19 -23.5 -47.5l-31.5 -64.5q-68 -132 -94 -186.5t-47 -116.5h-27l-207 983h-4l-39 -180l-98 -494q0 -1 -21.5 -116t-21.5 -134q0 -18 9 -23.5t42 -11.5q13 -2 30.5 -5t37 -7t30.5 -6
l-26 -41q-104 8 -193 8h-56q-89 0 -136 -4v43q130 7 149 18q30 19 78 199l29 115q13 51 19.5 81l12.5 60l39 195l20 92l22.5 106.5t21.5 115.5t10 79q0 51 -47 76.5t-174 25.5v39h67q23 0 143 -8t138 -8l16 -66q2 -6 22.5 -99.5t20.5 -102.5l74 -340q13 -67 41 -195t31 -133
q119 206 131 239l366 717h295z" />
    <glyph glyph-name="N" unicode="N" horiz-adv-x="1280" 
d="M1477 1206q-79 -3 -119 -18.5t-60 -53t-36 -114.5l-15 -68l-94 -399l-22.5 -99l-20.5 -94l-43 -188q-28 -116 -37 -199h-29l-94 193l-424 831h-4l-157 -702q-11 -45 -24 -110t-13 -72q0 -46 38 -57t123 -11l-12 -43l-235 2q-15 0 -71 -2.5t-126 -7.5l10 43
q114 1 153.5 31.5t59.5 93.5q28 86 73.5 277.5t82.5 375t49 279.5q-36 51 -76.5 75.5t-78.5 30.5t-97 6l2 43q17 0 124 -4t126 -4q53 0 78 2q18 -54 78 -166l440 -856q21 87 21 98l139 594q9 38 19 86.5l19 93t9 60.5q0 29 -21.5 41t-119.5 12l10 41q22 0 44 -0.5t50 -1.5
q78 -4 94 -4q5 0 37 2t55 2q41 2 95 2v-41z" />
    <glyph glyph-name="O" unicode="O" 
d="M1397 719q0 -133 -52.5 -266.5t-145.5 -239.5t-220.5 -168.5t-273.5 -62.5q-133 0 -234 50t-165 131.5t-94 176t-30 182.5q0 196 101 370.5t265.5 278t344.5 103.5q117 0 210.5 -44t159 -121t100 -178t34.5 -212zM1249 766q0 129 -44 235t-128.5 167t-195.5 61
q-104 0 -201.5 -51t-177 -147t-125 -231t-45.5 -294q0 -146 51 -256t138 -170t192 -60q73 0 161 37t158 107q124 123 170.5 305.5t46.5 296.5z" />
    <glyph glyph-name="P" unicode="P" horiz-adv-x="1024" 
d="M1104 915q0 -93 -55 -172t-144 -124.5t-184 -45.5q-88 0 -178 37l10 39q63 -24 123 -24q74 0 139.5 36t105.5 101.5t40 144.5q0 45 -18 109t-93.5 125.5t-226.5 64.5q-26 -86 -62 -241l-143 -625q-38 -163 -56 -272q67 -29 140 -29q63 0 139 37l-4 -45q-72 -37 -135 -37
q8 0 -97.5 5t-140.5 5l-215 -6v43q120 9 146 39q20 25 47 127.5t45 183.5l114 496q48 210 48 260q0 28 -13 41t-53 17.5t-135 4.5l12 43h279q266 0 389 -61q88 -45 132 -120.5t44 -156.5z" />
    <glyph glyph-name="Q" unicode="Q" 
d="M1524 -293q-142 -107 -288 -161t-292 -54q-71 0 -146 14.5t-164.5 53t-195.5 112.5q-27 -15 -84.5 -37t-87.5 -22q-35 0 -35 43q0 40 18.5 61t76.5 21q22 0 50 -6.5t62 -16.5q148 65 314.5 183.5t279.5 255.5q73 88 121.5 189.5t72 211.5t23.5 223q0 125 -45 227
t-128.5 161t-190.5 59q-119 0 -220 -57.5t-177 -159.5t-116 -227.5t-40 -262.5q0 -146 47.5 -259.5t139 -176t214.5 -62.5l-16 -40q-163 4 -269 63.5t-163 147t-79 178t-22 161.5q0 192 101.5 365t266 277t341.5 104q146 0 261.5 -71.5t179 -198t63.5 -281.5
q0 -208 -101.5 -381.5t-252 -302.5t-292 -209.5t-264.5 -136.5q81 -32 148 -53.5t159 -37.5t205 -16q181 0 298 40.5t210 107.5z" />
    <glyph glyph-name="R" unicode="R" horiz-adv-x="1087" 
d="M1081 -33q-125 5 -181 17.5t-79 35t-49 72.5l-170 336q-20 42 -59.5 107.5t-46.5 80.5h-15l-90 -407q-24 -110 -24 -137q0 -19 48.5 -24t135.5 -5l-2 -43q-76 -2 -168 -3.5t-105.5 -2t-68.5 -0.5q-9 0 -38.5 1.5t-60.5 2.5t-48 1.5t-37 0.5l2 45q65 0 101 4t62 21
q19 12 34.5 53.5t49.5 193.5l146 633q45 206 45 221q0 24 -20.5 30.5t-108.5 6.5h-70l10 43h166q129 0 243 -16.5t209 -84.5t95 -206q0 -113 -82.5 -197t-265.5 -118l149 -271l65.5 -114t83 -137.5t52.5 -67.5q35 -25 92 -37v-35zM844 961q0 209 -234 235l-118 -541
q172 0 262 82t90 224z" />
    <glyph glyph-name="S" unicode="S" horiz-adv-x="768" 
d="M858 1174q-10 -63 -22 -170h-31q-7 52 -16.5 81.5t-28.5 47.5q-3 5 -32.5 29.5t-71.5 45.5t-81 21q-38 0 -82.5 -20t-77 -65t-32.5 -118q0 -66 21.5 -120.5t61.5 -108t112 -135.5q81 -93 119 -163t38 -157q0 -108 -60.5 -193t-167 -131.5t-237.5 -46.5q-138 0 -200 68
q0 20 11.5 67.5t31.5 47.5q23 0 51 -33q49 -49 82.5 -72.5t83.5 -23.5q48 0 114 26t115 87t49 153q0 62 -21.5 114t-57.5 98.5t-113 133.5q-74 85 -112 154t-38 163q0 157 116 238.5t236 81.5q148 0 240 -100z" />
    <glyph glyph-name="T" unicode="T" horiz-adv-x="1087" 
d="M1305 1253q-26 -90 -41 -172h-39q0 6 0.5 11t0.5 12q0 48 -25 70t-103 22h-246l-34 -143t-21 -86l-113 -482q-39 -173 -52.5 -264t-13.5 -108q0 -64 168 -64q63 0 92 9.5t56 27.5l20 -25q-34 -31 -67 -45t-71.5 -17t-123.5 -3h-487l12 43q17 -1 48 -1q64 0 99 8.5
t56.5 30t35.5 61t31 110.5l168 721q12 47 25.5 118t19.5 109h-270q-60 0 -93 -20.5t-77 -94.5h-37l37 172h1045z" />
    <glyph glyph-name="U" unicode="U" horiz-adv-x="1323" 
d="M1501 1212q-83 -2 -119.5 -19.5t-56.5 -69.5t-53 -195l-115 -502q-23 -104 -63 -198.5t-137 -174.5t-257 -80q-70 0 -165.5 29.5t-174.5 120.5t-79 254q0 73 34 241l103 474q14 65 14 84q0 23 -23.5 30.5t-127.5 7.5l8 37h473l-12 -37q-84 -2 -120 -13t-51.5 -46
t-37.5 -135l-76 -340q-45 -200 -45 -301q0 -127 55 -206.5t129 -111.5t137 -32q122 0 198 69.5t112.5 166t64.5 224.5l137 605q15 56 15 92q0 18 -40 22t-116 4l8 39h381v-39z" />
    <glyph glyph-name="V" unicode="V" horiz-adv-x="1153" 
d="M1382 1210q-76 -15 -109 -30t-56 -41.5t-89 -122.5l-22 -33.5l-27 -40.5l-18 -27l-84 -122q-25 -35 -39.5 -57.5l-44.5 -67.5l-496 -703l-32 2l26 1147q0 11 0.5 19t0.5 19q0 39 -13 46q-14 6 -143 6v43h67q15 0 88 -2t84 -2q-6 0 32 1.5t110.5 3.5t99.5 3l-4 -41
q-78 0 -114.5 -11.5t-51.5 -45.5q-10 -24 -17 -142t-10 -249t-4.5 -285t-1.5 -262h4q7 17 26.5 42.5t33.5 45.5l208 299l88.5 125l118.5 175.5t110 173.5t44 93q0 32 -101 32q-39 0 -57 -1v47q42 -4 66 -4q28 -2 125 -2q144 0 202 6v-37z" />
    <glyph glyph-name="W" unicode="W" horiz-adv-x="1579" 
d="M1802 1212q-51 -1 -81 -15t-50 -42t-57 -92l-631 -1098h-33l41 1075l-4 4l-598 -1079h-31q14 341 19 475t8.5 290t3.5 314q0 126 -6 144q-3 8 -53.5 15t-87.5 9v43q16 0 82 -4q34 0 59 -0.5t55 -1.5q132 0 250 8l-4 -45q-69 -2 -98 -11t-41 -39.5t-15 -98.5l-14 -369
q0 18 -4 -147t-4 -268h4l457 829q22 39 22 55q0 30 -30.5 38.5t-100.5 10.5l6 43l95 -6q31 0 51 -0.5t43 -1.5q94 0 196 8v-43q-89 -4 -106 -38q-27 -54 -39 -680q-2 -168 -4 -226l4 -4l401 711q34 59 64.5 117.5t30.5 83.5q0 22 -18.5 28.5t-59.5 6.5q-14 0 -23.5 -0.5
t-21.5 -0.5l16 43q117 -6 150 -6q67 0 157 8v-43z" />
    <glyph glyph-name="X" unicode="X" horiz-adv-x="1343" 
d="M1335 43q-70 -45 -217 -45h-311l4 45q80 0 103.5 10.5t23.5 38.5q0 52 -57 168l-183 379l-288 -383l-53 -70.5l-50 -66.5q-14 -22 -14 -35q0 -43 63 -43t156 22l-6 -40q-98 -25 -205 -25h-285l-10 47q51 -6 62 -6q33 0 61.5 11t60.5 36.5t64 58.5q31 31 88 103l142 186.5
l100 134.5l90 121l-164 340q-61 126 -91 152t-89 26q-28 0 -82 -6l-4 33q47 16 96 16l113 -4q32 0 109 4t85 4q43 0 90 -10l-12 -39q-19 1 -49 1q-44 0 -88 -13q31 -82 51 -123l129 -260l178 244q80 104 80 133q0 26 -111 26l5 37q24 0 82 -2t88 -2h231l-6 -39
q-90 -2 -133.5 -12.5t-91 -50t-111 -121t-191.5 -260.5l189 -387q65 -140 160 -316q42 -6 65 -6q71 0 133 31v-43z" />
    <glyph glyph-name="Y" unicode="Y" horiz-adv-x="1044" 
d="M1249 1210q-64 -2 -93 -13t-74 -60t-150 -183l-172 -217q-46 -57 -63.5 -84.5t-30.5 -64.5t-29 -101l-58 -236t-32 -167q0 -27 24 -36t80 -9q64 0 119 10l-6 -39q-44 -12 -113 -12q-14 0 -97 2t-97 2q-30 0 -54.5 -0.5l-70.5 -1.5t-87.5 -2.5t-56.5 -1.5l7 41h28
q68 0 101 6t55 31q17 22 37 95.5t41 166.5l63 280l-30 112l-28.5 110.5l-35.5 141t-35 130.5q-16 62 -46 80.5t-112 21.5l5 37h426l-11 -43q-68 -2 -98.5 -10t-30.5 -37q0 -27 31 -153l22.5 -90t34.5 -130l31 -112l137.5 166.5t173 222.5t72.5 123q0 24 -94 24h-29l4 39
q24 0 92 -2t97 -2q77 0 153 6v-41z" />
    <glyph glyph-name="Z" unicode="Z" horiz-adv-x="1087" 
d="M1122 1253l-385 -518l-87.5 -120l-76.5 -107.5l-84.5 -119l-109.5 -152.5l-133 -187h293q132 0 235 7t158 18q28 4 55 23t84 69l43 2q-33 -53 -43 -71t-45 -97h-999l188 250l459 620q108 146 231 332h-532q-19 -17 -73.5 -78.5t-55.5 -62.5h-37q42 75 102 192h813z" />
    <glyph glyph-name="bracketleft" unicode="[" horiz-adv-x="725" 
d="M915 1374l-12 -57h-348l-379 -1823h352l-12 -57h-410l402 1937h407z" />
    <glyph glyph-name="backslash" unicode="\" horiz-adv-x="1087" 
d="M1112 -297h-94l-877 1817h95z" />
    <glyph glyph-name="bracketright" unicode="]" horiz-adv-x="725" 
d="M721 1374l-402 -1937h-407l12 57h348l379 1825h-350l12 55h408z" />
    <glyph glyph-name="asciicircum" unicode="^" horiz-adv-x="938" 
d="M1044 530h-98l-375 627l-372 -627h-101l459 766h33z" />
    <glyph glyph-name="underscore" unicode="_" horiz-adv-x="1024" 
d="M1024 -256h-1024v102h1024v-102z" />
    <glyph glyph-name="grave" unicode="`" horiz-adv-x="682" 
d="M702 868h-51l-231 326h131z" />
    <glyph glyph-name="a" unicode="a" horiz-adv-x="705" 
d="M715 154q-55 -71 -113 -118.5t-90 -47.5q-17 0 -40 19t-23 73q0 79 34 209l-4 4l-51 -64l-43 -47l-57.5 -65.5t-58.5 -64t-50.5 -46t-40.5 -18.5q-61 0 -77.5 40.5t-16.5 106.5q0 100 46.5 223t131.5 222.5t195 136.5q26 8 105 21t126 20q-107 -480 -121 -549.5
t-14 -104.5q0 -26 16 -26q35 0 119 94zM567 657q-97 -6 -154.5 -21.5t-103.5 -70.5q-52 -61 -85.5 -194.5t-33.5 -206.5q0 -62 35 -62q22 0 121 99q70 69 100 102.5t45 67t25 82.5q10 41 23.5 102.5t27.5 101.5z" />
    <glyph glyph-name="b" unicode="b" horiz-adv-x="662" 
d="M662 516q0 -95 -48 -191t-116 -169.5t-136.5 -120.5t-103.5 -47q-21 0 -58 23t-65.5 71t-28.5 117q0 48 13 118l168 787q17 80 26 136.5t11 78.5q-30 4 -52 4q-36 0 -86 -4l2 31l236 32q10 0 10 -12q0 -54 -24 -162l-144 -661l4 -4q60 64 143 135.5t122 71.5
q44 0 73 -40.5t41.5 -94.5t12.5 -99zM559 475q0 64 -24 117t-58 53q-38 0 -103.5 -49.5t-90.5 -81.5q-15 -20 -32.5 -79.5t-29.5 -129t-12 -92.5q0 -83 33 -117.5t63 -34.5q26 0 88 45t114 139t52 230z" />
    <glyph glyph-name="c" unicode="c" horiz-adv-x="512" 
d="M571 698q0 -13 -12 -41t-24 -28q-3 0 -45 10t-78 10q-48 0 -79 -23.5t-54 -86.5q-22 -59 -39.5 -132.5t-28 -142.5t-10.5 -108q0 -78 55 -78q58 0 178 92l21 -25q-66 -59 -144 -108t-137 -49q-42 0 -67 36.5t-25 77.5q0 97 49.5 253.5t136 274.5t193.5 118
q37 0 73.5 -11.5t36.5 -38.5z" />
    <glyph glyph-name="d" unicode="d" horiz-adv-x="725" 
d="M807 1376q0 -18 -4 -41l-215 -1104q-13 -61 -13 -102q0 -55 25 -55q13 0 52 30t59 50l24 -21q-47 -53 -107 -99t-93 -46q-24 0 -45 25.5t-21 78.5q0 56 23 141l-5 5l-97 -100t-62.5 -56.5t-83 -58t-84.5 -35.5q-28 19 -42 41.5t-14 70.5q0 182 67.5 331t163 235t171.5 86
q67 0 84 2l96 497q8 44 8 52q0 2 -4 18q-23 1 -58 1q-30 0 -89 -3l6 33q121 10 227 24h31zM573 666q-18 2 -45 2q-49 0 -84.5 -14t-95.5 -56q-62 -42 -95.5 -154t-33.5 -243q0 -57 8.5 -80t32.5 -23q18 0 63.5 32.5t96.5 86t88 111.5z" />
    <glyph glyph-name="e" unicode="e" horiz-adv-x="512" 
d="M551 659q0 -79 -98.5 -162t-235.5 -147l-16 -80q-13 -58 -13 -108q0 -36 19 -55t47 -19q66 0 207 105l18 -25q-82 -69 -174 -124.5t-131 -55.5q-32 0 -64 33t-32 116q0 61 23 159t63 191.5t86 149.5q36 45 81.5 81t86.5 36q39 0 86 -17.5t47 -77.5zM457 608q0 56 -86 56
q-38 0 -62.5 -34t-39.5 -80.5t-40 -146.5q95 51 161.5 99.5t66.5 105.5z" />
    <glyph glyph-name="f" unicode="f" horiz-adv-x="492" 
d="M739 1149q0 -59 -112 -59l-45 2q-78 0 -119.5 -36t-61.5 -108t-43 -227h232l-15 -59h-225l-53 -369q-27 -190 -59.5 -312.5t-85 -215t-132.5 -166.5q-150 -140 -325 -140q-94 0 -94 49q0 56 84 56q9 0 51 -2t49 -2q105 0 173.5 47t110 131.5t65 193.5t44.5 261l70 471
l-150 2q2 22 11 49l149 4q11 71 25.5 127t51.5 125t101 129q57 53 118.5 76.5t111.5 23.5q34 0 53.5 -14t19.5 -37z" />
    <glyph glyph-name="g" unicode="g" horiz-adv-x="575" 
d="M588 541q0 -54 -25 -123t-49 -109q-33 -61 -80 -95.5t-143 -82.5q-57 -28 -99 -64t-42 -83q0 -37 26.5 -51.5t89.5 -28.5q115 -24 189.5 -66t74.5 -135q0 -113 -69 -152q-67 -37 -138 -53.5t-122.5 -21t-83.5 -4.5q-142 0 -212.5 57.5t-70.5 128.5q0 51 44 125.5
t190 110.5q-13 24 -13 55q0 67 51 112t109 74q16 8 23 12t18 9q-10 6 -24 13t-21 11q-94 49 -94 197q0 69 33.5 136.5t86 122t107 85.5t92.5 31q46 0 99 -43t53 -168zM485 524l-4 51q-3 37 -11 52.5t-37.5 21.5t-94.5 6q-29 0 -45 -8.5t-31 -40.5q-13 -34 -31 -102.5
t-18 -124.5q0 -80 31 -120t71 -60q55 28 90.5 72t51.5 87.5t22 87t6 78.5zM426 -330q0 54 -37 77.5t-117 43.5q-97 26 -125.5 36t-54.5 30q-71 -22 -112 -51t-41 -93q0 -29 20.5 -71t77.5 -75.5t156 -33.5q98 0 165.5 35t67.5 102z" />
    <glyph glyph-name="h" unicode="h" horiz-adv-x="662" 
d="M668 530q0 -76 -21 -169t-57.5 -178t-88 -140t-106.5 -55q-49 0 -49 47q0 62 76 86q45 13 65 25t41 44q40 62 55 129t15 115q0 74 -23 122.5t-54 69.5t-56 21q-20 0 -48.5 -25.5t-41.5 -48.5q-47 -62 -74 -117.5t-43.5 -114t-36.5 -153.5l-31 -149q-1 -3 -2.5 -12.5
l-3 -19t-2.5 -11.5h-100l262 1255q0 2 2 13t2 12q0 16 -37.5 20t-105.5 4l4 31l104 10q21 3 36.5 5t39 6t37.5 5.5t20 2.5q11 0 11 -25q0 -14 -5.5 -45.5t-11 -55t-6.5 -30.5l-143 -682l4 -4q51 87 116.5 158.5t118.5 71.5q59 0 98.5 -65.5t39.5 -152.5z" />
    <glyph glyph-name="i" unicode="i" horiz-adv-x="426" 
d="M469 1098l-45 -162l-88 2l55 160h78zM410 174q-40 -54 -83.5 -95t-82.5 -66t-56 -25q-15 0 -30 16t-15 59q0 55 41 213l62 242q24 98 30 131q-35 -21 -67 -48.5t-64 -63.5l-22 22q60 72 108.5 114.5t81 58.5t52.5 16q24 0 24 -33q0 -36 -45 -205l-59 -236
q-16 -61 -24.5 -102t-8.5 -68q0 -12 4 -22q32 16 58 39.5t69 71.5z" />
    <glyph glyph-name="j" unicode="j" horiz-adv-x="406" 
d="M489 1100l-45 -162l-88 2l56 160h77zM403 717q0 -25 -14 -90l-139 -664q-37 -173 -105.5 -285.5t-136 -165.5t-98.5 -53q-35 0 -65.5 30.5t-30.5 68.5q0 33 32 65q38 -76 86 -76q131 0 205 363l23 108l131 625q-74 -30 -141 -117q-6 -6 -11 -12.5t-6 -7.5h-39
q55 84 114.5 139t106 79t70.5 24q9 0 13.5 -8.5t4.5 -22.5z" />
    <glyph glyph-name="k" unicode="k" horiz-adv-x="682" 
d="M668 643q0 -82 -26 -129t-69 -68.5t-83 -26.5t-119 -7l127 -219q42 -74 66.5 -109t45.5 -50.5t52 -21.5l-5 -32q-75 9 -120 9q-13 0 -22 -0.5t-21 -0.5q-43 88 -66 131l-147 276h-5l-83 -399h-101l250 1180q18 96 18 124q0 9 -10 9q-52 0 -112 -4l4 34q56 6 104 13
t75.5 12t31.5 6q26 0 26 -12q0 -10 -2 -15l-170 -813l4 -4q168 183 303 224q54 -23 54 -107zM569 625q0 28 -16 47q-115 -35 -262 -223q45 -5 76 -5q58 0 90.5 4t50.5 19q26 24 43.5 76t17.5 82z" />
    <glyph glyph-name="l" unicode="l" horiz-adv-x="406" 
d="M481 1360q0 -27 -16 -123t-16 -92l-181 -871q-20 -96 -20 -133q0 -47 26 -47q16 0 74 36.5t98 68.5v-37q-71 -65 -149 -119.5t-102 -54.5q-12 0 -33 21t-21 59q0 73 27 200l182 893q23 127 23 139q0 16 -8 19.5t-35 3.5l-107 -2l4 31q100 7 222 26q6 2 14 2q18 0 18 -20z
" />
    <glyph glyph-name="m" unicode="m" horiz-adv-x="1174" 
d="M1157 170q-131 -182 -196 -182q-17 0 -33.5 16t-16.5 51q0 19 13 84l82 387q14 65 14 90q0 10 -6.5 20.5t-12.5 10.5q-31 0 -104 -41.5t-132.5 -100.5t-72.5 -118l-80 -391h-100l104 514q17 74 17 108q0 17 -9 26t-20 9q-28 0 -83.5 -37.5t-106.5 -78.5
q-65 -53 -86 -89.5t-35 -107.5l-72 -344h-98l121 594q4 12 4 28q0 14 -8 19q-38 -11 -162 -141l-23 24q95 99 162.5 163.5t97.5 64.5q10 0 20.5 -7t16.5 -19.5t6 -25.5q0 -62 -32 -184l4 -4q284 240 372 240q41 0 41 -72q0 -28 -26 -158l4 -4q109 94 221 164t141 70
q15 0 32.5 -18t17.5 -56q0 -23 -13 -82l-82 -385q-12 -63 -12 -80q0 -25 14 -25q20 0 95 86z" />
    <glyph glyph-name="n" unicode="n" horiz-adv-x="811" 
d="M795 164q-137 -176 -207 -176q-43 0 -43 65q0 31 12 86l80 377q10 49 10 70q0 27 -11.5 38t-23.5 11q-89 0 -311 -279l-82 -360h-100l135 600q6 33 6 43q0 14 -8 14q-10 0 -35 -19.5t-48 -41.5l-48 -47l-23 24q83 83 138 129.5t96 46.5q39 0 39 -57q0 -18 -17 -86
l-37 -160l5 -4q82 96 163 167.5t142.5 107t95.5 35.5q9 0 24 -21t15 -49q0 -53 -29 -184l-49 -226q-3 -14 -18 -91t-15 -87t6 -16q40 15 115 106z" />
    <glyph glyph-name="o" unicode="o" horiz-adv-x="641" 
d="M635 457q0 -45 -17.5 -117t-71.5 -164t-157 -182q-35 -10 -61 -10q-62 0 -113.5 39t-82 113t-30.5 169q0 91 53.5 195.5t133 174.5t149.5 70q42 0 88 -33t77.5 -97.5t31.5 -157.5zM549 414q0 33 -9 75.5t-27.5 78t-55.5 61.5t-92 26q-52 0 -74 -28q-13 -15 -34 -56.5
t-37.5 -98t-16.5 -116.5q0 -70 15 -134t50 -107t90 -43q38 0 68 10q57 60 90 153t33 179z" />
    <glyph glyph-name="p" unicode="p" horiz-adv-x="682" 
d="M692 526q0 -105 -46 -232t-129 -215.5t-191 -88.5q-56 0 -105 24l-78 -366q-12 -51 -12 -82q0 -30 17 -45t55 -21t98 -6l-4 -33h-104q-6 0 -43 2t-46 2q-30 0 -112 -2t-92 -2l-2 35q66 5 88 12t30.5 30t24.5 95l211 1004l2 20q-70 -16 -154 -131h-32q43 80 100 139.5
t110 93.5t72 34q8 0 16.5 -9.5t8.5 -27.5q0 -19 -6 -37l-27 -117l25 16l84 62q91 68 104 68q17 0 50.5 -24t60 -74.5t26.5 -123.5zM586 512q0 50 -4 76q0 12 -33.5 36.5t-46.5 24.5q-23 0 -168 -90l-90 -432q25 -49 47 -63.5t57 -14.5q85 0 138 87.5t76.5 199t23.5 176.5z
" />
    <glyph glyph-name="q" unicode="q" horiz-adv-x="662" 
d="M662 719q0 -1 -1.5 -11.5t-3.5 -21.5t-2 -12l-219 -1059q-12 -72 -12 -82q0 -18 19.5 -28t82.5 -11l-4 -35q-67 9 -172 9q-43 0 -86 -1.5t-69.5 -3t-42.5 -2.5v35q67 1 104 7.5t49 19t19 39.5l20 88l117 567l-4 4l-110 -101t-116 -90.5t-92 -39.5q-39 0 -51 45t-12 88
q0 84 34.5 193t101.5 207.5t167.5 161.5t228.5 63q54 0 54 -29zM549 653q-93 -8 -139.5 -20t-79.5 -41q-51 -45 -82.5 -127t-45.5 -163.5t-14 -129.5q0 -84 29 -84q33 0 93 48t163 143z" />
    <glyph glyph-name="r" unicode="r" horiz-adv-x="618" 
d="M705 670q0 -18 -26.5 -43t-33.5 -25q-5 0 -31 10.5t-34 10.5q-26 0 -57 -33.5t-50 -63.5q-54 -74 -88.5 -151.5t-53 -144.5t-55.5 -232h-94l49 215q17 66 41.5 187t24.5 159q0 21 -5 27.5t-18 9.5q-24 -13 -54.5 -38t-59.5 -54q-43 -43 -60 -58q-7 9 -20 15
q47 61 133.5 156t142.5 135q43 -40 43 -105q0 -71 -41 -244l4 -4l35 76q41 88 105.5 180.5t120.5 92.5q23 0 52.5 -14t29.5 -64z" />
    <glyph glyph-name="s" unicode="s" horiz-adv-x="512" 
d="M541 696q0 -19 -12 -47t-29 -28q-8 0 -23 6q-90 30 -127 30q-40 0 -67 -29.5t-27 -60.5q0 -43 92 -143q60 -65 82.5 -103.5t22.5 -97.5q0 -65 -39.5 -119.5t-102 -86t-129.5 -31.5q-54 0 -93.5 29.5t-39.5 45.5q0 11 24 54t44 55q24 -113 112 -113q52 0 97 42.5t45 84.5
q0 59 -72 133l-45 50q-48 51 -64 82.5t-16 68.5q0 63 44.5 116.5t114.5 84.5t144 31q64 0 64 -54z" />
    <glyph glyph-name="t" unicode="t" horiz-adv-x="449" 
d="M522 721l-14 -55l-150 -2l-110 -510q-6 -26 -6 -52q0 -10 2 -22q63 26 143 131l29 -18q-95 -125 -155 -166t-83 -41q-45 0 -45 73q0 27 14 99l109 506h-98l14 49q49 5 70.5 15.5t39 49t37.5 133.5l97 15l-45 -205h151z" />
    <glyph glyph-name="u" unicode="u" horiz-adv-x="831" 
d="M838 182q-62 -83 -129 -138.5t-91 -55.5q-15 0 -38 20.5t-23 46.5q0 18 9.5 67.5l15.5 78.5l67 309l-4 4q-115 -199 -247.5 -362.5t-207.5 -163.5q-32 0 -32 57q0 33 5 70.5t13.5 81.5t24.5 120l32 172q3 3 13 52.5t10 64.5q0 23 -18 23t-65.5 -46.5t-98.5 -117.5l-19 18
q18 30 67 94t108 118.5t102 54.5q12 0 25.5 -9.5t13.5 -38.5q0 -38 -17 -114l-11.5 -60.5t-10.5 -52.5l-43 -211q0 1 -7.5 -45.5t-7.5 -60.5q0 -29 19 -29q27 0 111.5 100t167.5 230t114 227q7 25 42.5 43.5t49.5 18.5q6 0 6 -25q0 -23 -14 -98l-90 -422q0 -1 -6 -36t-6 -48
q0 -25 18 -25q41 0 125 107z" />
    <glyph glyph-name="v" unicode="v" horiz-adv-x="705" 
d="M715 584q0 -167 -98.5 -319t-243.5 -277h-29l-90 544q-11 71 -20.5 96t-22.5 25q-37 0 -107 -125l-24 17q22 48 49.5 89t52.5 66t48.5 37.5t39.5 12.5q29 0 42.5 -37t29.5 -135l80 -478q73 75 117 130t72 119.5t28 129.5q0 60 -19 100.5t-57 82.5q4 29 22 47t37.5 27
t24.5 9q28 0 48 -53t20 -108z" />
    <glyph glyph-name="w" unicode="w" horiz-adv-x="1153" 
d="M1176 569q0 -76 -31 -145t-88 -152q-101 -141 -240 -284h-20l-99 434l-79 -124t-111.5 -159.5t-118.5 -150.5h-24l-132 587q-11 52 -30 52q-14 0 -30 -17.5t-29.5 -38t-37.5 -61.5q0 -6 -8 -14l-22 20q50 124 98.5 179t75.5 55q29 0 42 -28t27 -93l117 -514
q63 84 118 165.5t116 184.5q10 20 12 22l-23 93q-9 36 -12 49.5t-8 32.5l84 88l145 -635q238 268 238 413q0 11 -4 31t-14 37t-27 20q-25 13 -43 31q35 66 63 103q42 -22 68.5 -60.5t26.5 -120.5z" />
    <glyph glyph-name="x" unicode="x" horiz-adv-x="961" 
d="M991 647q0 -35 -43 -55q-3 30 -18 45q-19 16 -51 16q-47 0 -95 -38.5t-118 -133.5l-60 -80q68 -120 107.5 -181.5t61.5 -88t35 -33t30 -6.5q43 0 104 58l21 -29q-37 -31 -94.5 -74t-86.5 -59q-49 20 -107 97t-136 222q-133 -186 -211 -252.5t-154 -66.5q-53 0 -91 31.5
t-38 76.5q0 35 31 60q46 -80 125 -80q45 0 93.5 32.5t93.5 82.5t128 157q-2 5 -49.5 82t-94.5 138t-69 61q-23 0 -56.5 -29.5t-74.5 -73.5l-24 25q29 36 82 92t112 107q71 -50 131.5 -138.5t106.5 -175.5q76 108 128.5 175.5t98 102t94.5 34.5q42 0 65 -36.5t23 -64.5z" />
    <glyph glyph-name="y" unicode="y" horiz-adv-x="725" 
d="M711 600q0 -140 -83 -336.5t-211 -381t-261.5 -303t-227.5 -118.5q-78 0 -118 68l65 70q31 -29 48.5 -39.5t53.5 -10.5q59 0 157 76t172.5 187t74.5 213q0 79 -33.5 226.5t-77 259.5t-71.5 112q-35 0 -111 -170l-29 26q49 115 104 192t89 77q20 0 53.5 -60.5t65.5 -156.5
t58.5 -225t33.5 -265h4q178 313 178 496q0 49 -15.5 67.5t-31.5 18.5q-18 0 -29 -17l-20 21q22 42 58 81.5t65 39.5q15 0 27 -50.5t12 -97.5z" />
    <glyph glyph-name="z" unicode="z" horiz-adv-x="705" 
d="M801 713l-606 -609l4 -4q32 19 69 19q17 0 120 -19.5t116 -19.5q49 0 85.5 27t76.5 69l26 -24q-37 -48 -110 -107t-154 -59q-20 0 -41.5 4.5t-112.5 25.5q-38 11 -90 11q-63 0 -125 -41h-53l635 643q-47 0 -68 6q-103 24 -137 24q-110 0 -182 -159q-21 21 -21 26
q20 56 83 140t171 84q15 0 109 -17.5t104 -17.5q41 0 82 39z" />
    <glyph glyph-name="braceleft" unicode="{" horiz-adv-x="1044" 
d="M862 -528q-104 13 -189 68t-132 139t-47 178q0 22 20.5 154t20.5 163q0 51 -30 96.5t-84 75.5t-116 37v37q62 7 116 37t84 75.5t30 96.5q0 19 -21 155q-20 136 -20 162q0 94 47 178t132 139t189 68v-35q-74 -16 -126.5 -51.5t-77.5 -82t-25 -95.5q0 -16 21.5 -155.5
t21.5 -166.5q0 -73 -34 -140t-98.5 -118.5t-156.5 -83.5v-4q69 -22 121.5 -56.5t90.5 -79.5t57.5 -97.5t19.5 -108.5q0 -18 -5.5 -63.5t-15.5 -95.5q-22 -150 -22 -162q0 -78 57.5 -141t171.5 -89v-34z" />
    <glyph glyph-name="bar" unicode="|" horiz-adv-x="1087" 
d="M666 -512h-97v2048h97v-2048z" />
    <glyph glyph-name="braceright" unicode="}" horiz-adv-x="1044" 
d="M864 383q-98 -12 -162.5 -71t-64.5 -138q0 -53 22 -147q23 -92 23 -170q0 -94 -48.5 -178t-135.5 -139t-191 -68v34q112 26 168.5 89t56.5 141q0 29 -22.5 162t-22.5 159q0 113 79 205t216 137v4q-91 32 -157 83t-102 117.5t-36 141.5q0 15 3 32.5l8.5 52l11.5 75.5
q22 150 22 162q0 78 -56.5 141.5t-168.5 87.5v35q104 -13 191 -68t135.5 -139t48.5 -178q0 -12 -5 -48t-14.5 -92.5l-17.5 -108.5t-8 -68q0 -79 64.5 -138t162.5 -71v-37z" />
    <glyph glyph-name="asciitilde" unicode="~" 
d="M1356 717q-1 -88 -37 -154.5t-94.5 -101.5t-128.5 -35q-34 0 -51.5 2.5t-55.5 14.5t-118 43.5l-173 68.5q-98 40 -148 54t-87 14q-159 0 -199 -195h-45q7 128 59 194.5t103.5 82.5t85.5 16q45 0 123 -22t282 -111q70 -31 117 -46.5t71 -19.5t50 -4q70 0 128.5 44.5
t70.5 154.5h47z" />
    <glyph glyph-name="Adieresis" unicode="&#xc4;" horiz-adv-x="1130" 
d="M1128 39q-60 -45 -161 -45q-2 0 -19 1.5t-37 2.5t-31.5 1.5t-25.5 0.5h-76q-76 0 -151 -4l4 47q80 5 109.5 20.5t38.5 54.5t14 146l10 221q-51 7 -144 7q-106 0 -178 -7l-73 -133q-32 -56 -61 -115.5t-46.5 -103t-17.5 -57.5q0 -24 29 -30.5t91 -8.5l-6 -41
q-13 0 -47.5 1.5t-73.5 2.5l-59.5 1.5t-46.5 0.5h-174l12 35q59 2 88 5.5t48 13.5t34 29.5t47 74.5l51 86l115 205q8 12 57.5 94.5l144.5 233.5l188 290t153 213h29l-41 -1092q0 -10 -0.5 -16t-0.5 -13q0 -51 18.5 -82.5t72.5 -31.5q42 0 116 31v-39zM829 1034l-4 4
q-50 -71 -163 -250l-27 -44l-48 -79.5l-46.5 -76.5t-22.5 -37q54 -8 150 -8q61 0 137 6zM1201 1466q0 -30 -22 -53t-52 -23t-52 23t-22 53q0 29 21.5 51.5t52.5 22.5q19 0 36.5 -10.5t27.5 -28t10 -35.5zM904 1466q0 -31 -21.5 -53.5t-52.5 -22.5q-29 0 -51.5 22.5
t-22.5 53.5q0 32 21 53t53 21q31 0 52.5 -22.5t21.5 -51.5z" />
    <glyph glyph-name="Aring" unicode="&#xc5;" horiz-adv-x="1130" 
d="M1128 39q-60 -45 -161 -45q-2 0 -19 1.5t-37 2.5t-31.5 1.5t-25.5 0.5h-76q-76 0 -151 -4l4 47q80 5 109.5 20.5t38.5 54.5t14 146l10 221q-51 7 -144 7q-106 0 -178 -7l-73 -133q-32 -56 -61 -115.5t-46.5 -103t-17.5 -57.5q0 -24 29 -30.5t91 -8.5l-6 -41
q-13 0 -47.5 1.5t-73.5 2.5l-59.5 1.5t-46.5 0.5h-174l12 35q59 2 88 5.5t48 13.5t34 29.5t47 74.5l51 86l115 205q8 12 57.5 94.5l144.5 233.5l188 290t153 213h29l-41 -1092q0 -10 -0.5 -16t-0.5 -13q0 -51 18.5 -82.5t72.5 -31.5q42 0 116 31v-39zM829 1034l-4 4
q-50 -71 -163 -250l-27 -44l-48 -79.5l-46.5 -76.5t-22.5 -37q54 -8 150 -8q61 0 137 6zM1071 1513q0 -42 -21.5 -77.5t-57 -56t-77.5 -20.5q-61 0 -107.5 45t-46.5 109q0 66 46 110t108 44q44 0 79.5 -20.5t56 -56.5t20.5 -77zM1023 1513q0 47 -31 78t-77 31
q-44 0 -75.5 -31.5t-31.5 -77.5q0 -43 32.5 -75.5t74.5 -32.5q46 0 77 32t31 76z" />
    <glyph glyph-name="Ccedilla" unicode="&#xc7;" horiz-adv-x="1260" 
d="M1401 1133q-33 -136 -35 -209l-49 -2v10q0 125 -65 190t-137 83t-126 18q-160 0 -311 -100.5t-243.5 -266t-92.5 -348.5q0 -226 126 -353.5t275 -127.5q54 0 131 25t146 73q23 17 38.5 30.5t33.5 35t32 40t43 60.5l45 -23q-50 -97 -79 -194q-104 -45 -204 -74t-231 -29
l-22 -32q71 -11 103 -50.5t32 -89.5q0 -94 -111 -157t-266 -63q-25 0 -37 1l15 39q156 8 222 58.5t66 99.5q0 52 -39.5 65t-103.5 13l92 120q-136 18 -241.5 90t-164.5 187t-59 254q0 143 57 279t164 246.5t257 176.5t327 66q217 0 412 -141z" />
    <glyph glyph-name="Eacute" unicode="&#xc9;" horiz-adv-x="961" 
d="M1061 1253q0 -45 -8.5 -99.5t-18.5 -94.5h-30q-8 75 -14.5 98t-20.5 31q-25 16 -183 16q-45 0 -161 -6q-8 -20 -27.5 -89t-28 -103l-16.5 -66l-47 -209q252 0 280 19q16 11 56 110h47q-40 -124 -80 -307h-41q3 12 6.5 45.5t3.5 40.5q0 21 -11 29t-34 10t-108 4l-129 2
l-142 -616l199 -5q35 0 53.5 -0.5t40.5 -1.5q72 0 117.5 12.5t79.5 47t80 112.5l30 -18q-42 -140 -96 -219q-102 8 -321 8q-402 0 -533 -10l-6 47q119 10 144 14.5t40 14.5q23 17 39.5 64t32.5 120l176 754q25 100 25 147q0 27 -17.5 36.5t-58.5 14.5q-36 3 -81 3
q-53 0 -89 -1l8 45h844zM947 1681l-299 -326h-50l218 326h131z" />
    <glyph glyph-name="Ntilde" unicode="&#xd1;" horiz-adv-x="1280" 
d="M1477 1206q-79 -3 -119 -18.5t-60 -53t-36 -114.5l-15 -68l-94 -399l-22.5 -99l-20.5 -94l-43 -188q-28 -116 -37 -199h-29l-94 193l-424 831h-4l-157 -702q-11 -45 -24 -110t-13 -72q0 -46 38 -57t123 -11l-12 -43l-235 2q-15 0 -71 -2.5t-126 -7.5l10 43
q114 1 153.5 31.5t59.5 93.5q28 86 73.5 277.5t82.5 375t49 279.5q-36 51 -76.5 75.5t-78.5 30.5t-97 6l2 43q17 0 124 -4t126 -4q53 0 78 2q18 -54 78 -166l440 -856q21 87 21 98l139 594q9 38 19 86.5l19 93t9 60.5q0 29 -21.5 41t-119.5 12l10 41q22 0 44 -0.5t50 -1.5
q78 -4 94 -4q5 0 37 2t55 2q41 2 95 2v-41zM1110 1569q-15 -63 -39 -102t-55 -57.5t-66 -18.5q-46 0 -121 43q-35 23 -56.5 33t-43.5 10q-56 0 -92 -86h-41q60 176 164 176q44 0 102 -35q88 -49 117 -49q61 0 90 86h41z" />
    <glyph glyph-name="Odieresis" unicode="&#xd6;" 
d="M1397 719q0 -133 -52.5 -266.5t-145.5 -239.5t-220.5 -168.5t-273.5 -62.5q-133 0 -234 50t-165 131.5t-94 176t-30 182.5q0 196 101 370.5t265.5 278t344.5 103.5q117 0 210.5 -44t159 -121t100 -178t34.5 -212zM1249 766q0 129 -44 235t-128.5 167t-195.5 61
q-104 0 -201.5 -51t-177 -147t-125 -231t-45.5 -294q0 -146 51 -256t138 -170t192 -60q73 0 161 37t158 107q124 123 170.5 305.5t46.5 296.5zM1135 1466q0 -30 -22 -53t-52 -23t-52 23t-22 53q0 29 21.5 51.5t52.5 22.5q19 0 36.5 -10.5t27.5 -28t10 -35.5zM838 1466
q0 -31 -21.5 -53.5t-52.5 -22.5q-29 0 -51.5 22.5t-22.5 53.5q0 32 21 53t53 21q31 0 52.5 -22.5t21.5 -51.5z" />
    <glyph glyph-name="Udieresis" unicode="&#xdc;" horiz-adv-x="1323" 
d="M1501 1212q-83 -2 -119.5 -19.5t-56.5 -69.5t-53 -195l-115 -502q-23 -104 -63 -198.5t-137 -174.5t-257 -80q-70 0 -165.5 29.5t-174.5 120.5t-79 254q0 73 34 241l103 474q14 65 14 84q0 23 -23.5 30.5t-127.5 7.5l8 37h473l-12 -37q-84 -2 -120 -13t-51.5 -46
t-37.5 -135l-76 -340q-45 -200 -45 -301q0 -127 55 -206.5t129 -111.5t137 -32q122 0 198 69.5t112.5 166t64.5 224.5l137 605q15 56 15 92q0 18 -40 22t-116 4l8 39h381v-39zM1170 1466q0 -30 -22 -53t-52 -23t-52 23t-22 53q0 29 21.5 51.5t52.5 22.5q19 0 36.5 -10.5
t27.5 -28t10 -35.5zM873 1466q0 -31 -21.5 -53.5t-52.5 -22.5q-29 0 -51.5 22.5t-22.5 53.5q0 32 21 53t53 21q31 0 52.5 -22.5t21.5 -51.5z" />
    <glyph glyph-name="aacute" unicode="&#xe1;" horiz-adv-x="705" 
d="M715 154q-55 -71 -113 -118.5t-90 -47.5q-17 0 -40 19t-23 73q0 79 34 209l-4 4l-51 -64l-43 -47l-57.5 -65.5t-58.5 -64t-50.5 -46t-40.5 -18.5q-61 0 -77.5 40.5t-16.5 106.5q0 100 46.5 223t131.5 222.5t195 136.5q26 8 105 21t126 20q-107 -480 -121 -549.5
t-14 -104.5q0 -26 16 -26q35 0 119 94zM567 657q-97 -6 -154.5 -21.5t-103.5 -70.5q-52 -61 -85.5 -194.5t-33.5 -206.5q0 -62 35 -62q22 0 121 99q70 69 100 102.5t45 67t25 82.5q10 41 23.5 102.5t27.5 101.5zM765 1194l-299 -326h-50l218 326h131z" />
    <glyph glyph-name="agrave" unicode="&#xe0;" horiz-adv-x="705" 
d="M715 154q-55 -71 -113 -118.5t-90 -47.5q-17 0 -40 19t-23 73q0 79 34 209l-4 4l-51 -64l-43 -47l-57.5 -65.5t-58.5 -64t-50.5 -46t-40.5 -18.5q-61 0 -77.5 40.5t-16.5 106.5q0 100 46.5 223t131.5 222.5t195 136.5q26 8 105 21t126 20q-107 -480 -121 -549.5
t-14 -104.5q0 -26 16 -26q35 0 119 94zM567 657q-97 -6 -154.5 -21.5t-103.5 -70.5q-52 -61 -85.5 -194.5t-33.5 -206.5q0 -62 35 -62q22 0 121 99q70 69 100 102.5t45 67t25 82.5q10 41 23.5 102.5t27.5 101.5zM714 868h-51l-231 326h131z" />
    <glyph glyph-name="acircumflex" unicode="&#xe2;" horiz-adv-x="705" 
d="M715 154q-55 -71 -113 -118.5t-90 -47.5q-17 0 -40 19t-23 73q0 79 34 209l-4 4l-51 -64l-43 -47l-57.5 -65.5t-58.5 -64t-50.5 -46t-40.5 -18.5q-61 0 -77.5 40.5t-16.5 106.5q0 100 46.5 223t131.5 222.5t195 136.5q26 8 105 21t126 20q-107 -480 -121 -549.5
t-14 -104.5q0 -26 16 -26q35 0 119 94zM567 657q-97 -6 -154.5 -21.5t-103.5 -70.5q-52 -61 -85.5 -194.5t-33.5 -206.5q0 -62 35 -62q22 0 121 99q70 69 100 102.5t45 67t25 82.5q10 41 23.5 102.5t27.5 101.5zM737 868h-43l-82 205l-227 -205h-45l247 326h99z" />
    <glyph glyph-name="adieresis" unicode="&#xe4;" horiz-adv-x="705" 
d="M715 154q-55 -71 -113 -118.5t-90 -47.5q-17 0 -40 19t-23 73q0 79 34 209l-4 4l-51 -64l-43 -47l-57.5 -65.5t-58.5 -64t-50.5 -46t-40.5 -18.5q-61 0 -77.5 40.5t-16.5 106.5q0 100 46.5 223t131.5 222.5t195 136.5q26 8 105 21t126 20q-107 -480 -121 -549.5
t-14 -104.5q0 -26 16 -26q35 0 119 94zM567 657q-97 -6 -154.5 -21.5t-103.5 -70.5q-52 -61 -85.5 -194.5t-33.5 -206.5q0 -62 35 -62q22 0 121 99q70 69 100 102.5t45 67t25 82.5q10 41 23.5 102.5t27.5 101.5zM805 979q0 -30 -22 -53t-52 -23t-52 23t-22 53
q0 29 21.5 51.5t52.5 22.5q19 0 36.5 -10.5t27.5 -28t10 -35.5zM508 979q0 -31 -21.5 -53.5t-52.5 -22.5q-29 0 -51.5 22.5t-22.5 53.5q0 32 21 53t53 21q31 0 52.5 -22.5t21.5 -51.5z" />
    <glyph glyph-name="atilde" unicode="&#xe3;" horiz-adv-x="705" 
d="M715 154q-55 -71 -113 -118.5t-90 -47.5q-17 0 -40 19t-23 73q0 79 34 209l-4 4l-51 -64l-43 -47l-57.5 -65.5t-58.5 -64t-50.5 -46t-40.5 -18.5q-61 0 -77.5 40.5t-16.5 106.5q0 100 46.5 223t131.5 222.5t195 136.5q26 8 105 21t126 20q-107 -480 -121 -549.5
t-14 -104.5q0 -26 16 -26q35 0 119 94zM567 657q-97 -6 -154.5 -21.5t-103.5 -70.5q-52 -61 -85.5 -194.5t-33.5 -206.5q0 -62 35 -62q22 0 121 99q70 69 100 102.5t45 67t25 82.5q10 41 23.5 102.5t27.5 101.5zM823 1081q-15 -63 -39 -102t-55 -57.5t-66 -18.5
q-46 0 -121 43q-35 23 -56.5 33t-43.5 10q-56 0 -92 -86h-41q60 176 164 176q44 0 102 -35q88 -49 117 -49q61 0 90 86h41z" />
    <glyph glyph-name="aring" unicode="&#xe5;" horiz-adv-x="705" 
d="M715 154q-55 -71 -113 -118.5t-90 -47.5q-17 0 -40 19t-23 73q0 79 34 209l-4 4l-51 -64l-43 -47l-57.5 -65.5t-58.5 -64t-50.5 -46t-40.5 -18.5q-61 0 -77.5 40.5t-16.5 106.5q0 100 46.5 223t131.5 222.5t195 136.5q26 8 105 21t126 20q-107 -480 -121 -549.5
t-14 -104.5q0 -26 16 -26q35 0 119 94zM567 657q-97 -6 -154.5 -21.5t-103.5 -70.5q-52 -61 -85.5 -194.5t-33.5 -206.5q0 -62 35 -62q22 0 121 99q70 69 100 102.5t45 67t25 82.5q10 41 23.5 102.5t27.5 101.5zM676 1026q0 -42 -21.5 -77.5t-57 -56t-77.5 -20.5
q-61 0 -107.5 45t-46.5 109q0 66 46 110t108 44q44 0 79.5 -20.5t56 -56.5t20.5 -77zM628 1026q0 47 -31 78t-77 31q-44 0 -75.5 -31.5t-31.5 -77.5q0 -43 32.5 -75.5t74.5 -32.5q46 0 77 32t31 76z" />
    <glyph glyph-name="ccedilla" unicode="&#xe7;" horiz-adv-x="512" 
d="M571 698q0 -13 -12 -41t-24 -28q-9 0 -61 10t-62 10q-48 0 -79 -23.5t-54 -86.5q-22 -59 -39.5 -132.5t-28 -142.5t-10.5 -108q0 -78 55 -78q58 0 178 92l21 -25q-59 -52 -127 -97.5t-127 -57.5l-37 -51q71 -11 103 -50.5t32 -89.5q0 -94 -111 -157t-266 -63q-25 0 -37 1
l15 39q156 8 222 58.5t66 99.5q0 52 -39.5 65t-103.5 13l102 137q-31 10 -48 44.5t-17 65.5q0 97 49.5 253.5t136 274.5t193.5 118q37 0 73.5 -11.5t36.5 -38.5z" />
    <glyph glyph-name="eacute" unicode="&#xe9;" horiz-adv-x="512" 
d="M551 659q0 -79 -98.5 -162t-235.5 -147l-16 -80q-13 -58 -13 -108q0 -36 19 -55t47 -19q66 0 207 105l18 -25q-82 -69 -174 -124.5t-131 -55.5q-32 0 -64 33t-32 116q0 61 23 159t63 191.5t86 149.5q36 45 81.5 81t86.5 36q39 0 86 -17.5t47 -77.5zM457 608q0 56 -86 56
q-38 0 -62.5 -34t-39.5 -80.5t-40 -146.5q95 51 161.5 99.5t66.5 105.5zM668 1194l-299 -326h-50l218 326h131z" />
    <glyph glyph-name="egrave" unicode="&#xe8;" horiz-adv-x="512" 
d="M551 659q0 -79 -98.5 -162t-235.5 -147l-16 -80q-13 -58 -13 -108q0 -36 19 -55t47 -19q66 0 207 105l18 -25q-82 -69 -174 -124.5t-131 -55.5q-32 0 -64 33t-32 116q0 61 23 159t63 191.5t86 149.5q36 45 81.5 81t86.5 36q39 0 86 -17.5t47 -77.5zM457 608q0 56 -86 56
q-38 0 -62.5 -34t-39.5 -80.5t-40 -146.5q95 51 161.5 99.5t66.5 105.5zM618 868h-51l-231 326h131z" />
    <glyph glyph-name="ecircumflex" unicode="&#xea;" horiz-adv-x="512" 
d="M551 659q0 -79 -98.5 -162t-235.5 -147l-16 -80q-13 -58 -13 -108q0 -36 19 -55t47 -19q66 0 207 105l18 -25q-82 -69 -174 -124.5t-131 -55.5q-32 0 -64 33t-32 116q0 61 23 159t63 191.5t86 149.5q36 45 81.5 81t86.5 36q39 0 86 -17.5t47 -77.5zM457 608q0 56 -86 56
q-38 0 -62.5 -34t-39.5 -80.5t-40 -146.5q95 51 161.5 99.5t66.5 105.5zM641 868h-43l-82 205l-227 -205h-45l247 326h99z" />
    <glyph glyph-name="edieresis" unicode="&#xeb;" horiz-adv-x="512" 
d="M551 659q0 -79 -98.5 -162t-235.5 -147l-16 -80q-13 -58 -13 -108q0 -36 19 -55t47 -19q66 0 207 105l18 -25q-82 -69 -174 -124.5t-131 -55.5q-32 0 -64 33t-32 116q0 61 23 159t63 191.5t86 149.5q36 45 81.5 81t86.5 36q39 0 86 -17.5t47 -77.5zM457 608q0 56 -86 56
q-38 0 -62.5 -34t-39.5 -80.5t-40 -146.5q95 51 161.5 99.5t66.5 105.5zM709 979q0 -30 -22 -53t-52 -23t-52 23t-22 53q0 29 21.5 51.5t52.5 22.5q19 0 36.5 -10.5t27.5 -28t10 -35.5zM412 979q0 -31 -21.5 -53.5t-52.5 -22.5q-29 0 -51.5 22.5t-22.5 53.5q0 32 21 53
t53 21q31 0 52.5 -22.5t21.5 -51.5z" />
    <glyph glyph-name="iacute" unicode="&#xed;" horiz-adv-x="426" 
d="M410 174q-40 -54 -83.5 -95t-82.5 -66t-56 -25q-11 0 -28 16.5t-17 58.5q0 55 41 213l62 242q24 98 30 131q-35 -21 -67 -48.5t-64 -63.5l-22 22q60 72 108.5 114.5t81 58.5t52.5 16q24 0 24 -33q0 -28 -45 -205l-59 -236q-13 -48 -23 -99t-10 -71q0 -12 4 -22
q32 16 58 39.5t69 71.5zM625 1194l-299 -326h-50l218 326h131z" />
    <glyph glyph-name="igrave" unicode="&#xec;" horiz-adv-x="426" 
d="M410 174q-40 -54 -83.5 -95t-82.5 -66t-56 -25q-11 0 -28 16.5t-17 58.5q0 55 41 213l62 242q24 98 30 131q-35 -21 -67 -48.5t-64 -63.5l-22 22q60 72 108.5 114.5t81 58.5t52.5 16q24 0 24 -33q0 -28 -45 -205l-59 -236q-13 -48 -23 -99t-10 -71q0 -12 4 -22
q32 16 58 39.5t69 71.5zM528 868h-51l-231 326h131z" />
    <glyph glyph-name="icircumflex" unicode="&#xee;" horiz-adv-x="426" 
d="M410 174q-40 -54 -83.5 -95t-82.5 -66t-56 -25q-11 0 -28 16.5t-17 58.5q0 55 41 213l62 242q24 98 30 131q-35 -21 -67 -48.5t-64 -63.5l-22 22q60 72 108.5 114.5t81 58.5t52.5 16q24 0 24 -33q0 -28 -45 -205l-59 -236q-13 -48 -23 -99t-10 -71q0 -12 4 -22
q32 16 58 39.5t69 71.5zM598 868h-43l-82 205l-227 -205h-45l247 326h99z" />
    <glyph glyph-name="idieresis" unicode="&#xef;" horiz-adv-x="426" 
d="M410 174q-40 -54 -83.5 -95t-82.5 -66t-56 -25q-11 0 -28 16.5t-17 58.5q0 55 41 213l62 242q24 98 30 131q-35 -21 -67 -48.5t-64 -63.5l-22 22q60 72 108.5 114.5t81 58.5t52.5 16q24 0 24 -33q0 -28 -45 -205l-59 -236q-13 -48 -23 -99t-10 -71q0 -12 4 -22
q32 16 58 39.5t69 71.5zM666 979q0 -30 -22 -53t-52 -23t-52 23t-22 53q0 29 21.5 51.5t52.5 22.5q19 0 36.5 -10.5t27.5 -28t10 -35.5zM369 979q0 -31 -21.5 -53.5t-52.5 -22.5q-29 0 -51.5 22.5t-22.5 53.5q0 32 21 53t53 21q31 0 52.5 -22.5t21.5 -51.5z" />
    <glyph glyph-name="ntilde" unicode="&#xf1;" horiz-adv-x="811" 
d="M795 164q-137 -176 -207 -176q-43 0 -43 65q0 31 12 86l80 377q10 49 10 70q0 27 -11.5 38t-23.5 11q-89 0 -311 -279l-82 -360h-100l135 600q6 33 6 43q0 14 -8 14q-10 0 -35 -19.5t-48 -41.5l-48 -47l-23 24q83 83 138 129.5t96 46.5q39 0 39 -57q0 -18 -17 -86
l-37 -160l5 -4q82 96 163 167.5t142.5 107t95.5 35.5q9 0 24 -21t15 -49q0 -53 -29 -184l-49 -226q-3 -14 -18 -91t-15 -87t6 -16q40 15 115 106zM829 1081q-15 -63 -39 -102t-55 -57.5t-66 -18.5q-46 0 -121 43q-35 23 -56.5 33t-43.5 10q-56 0 -92 -86h-41q60 176 164 176
q44 0 102 -35q88 -49 117 -49q61 0 90 86h41z" />
    <glyph glyph-name="oacute" unicode="&#xf3;" horiz-adv-x="641" 
d="M635 457q0 -45 -17.5 -117t-71.5 -164t-157 -182q-35 -10 -61 -10q-62 0 -113.5 39t-82 113t-30.5 169q0 91 53.5 195.5t133 174.5t149.5 70q42 0 88 -33t77.5 -97.5t31.5 -157.5zM549 414q0 33 -9 75.5t-27.5 78t-55.5 61.5t-92 26q-52 0 -74 -28q-13 -15 -34 -56.5
t-37.5 -98t-16.5 -116.5q0 -70 15 -134t50 -107t90 -43q38 0 68 10q57 60 90 153t33 179zM685 1194l-299 -326h-50l218 326h131z" />
    <glyph glyph-name="ograve" unicode="&#xf2;" horiz-adv-x="641" 
d="M635 457q0 -45 -17.5 -117t-71.5 -164t-157 -182q-35 -10 -61 -10q-62 0 -113.5 39t-82 113t-30.5 169q0 91 53.5 195.5t133 174.5t149.5 70q42 0 88 -33t77.5 -97.5t31.5 -157.5zM549 414q0 33 -9 75.5t-27.5 78t-55.5 61.5t-92 26q-52 0 -74 -28q-13 -15 -34 -56.5
t-37.5 -98t-16.5 -116.5q0 -70 15 -134t50 -107t90 -43q38 0 68 10q57 60 90 153t33 179zM634 868h-51l-231 326h131z" />
    <glyph glyph-name="ocircumflex" unicode="&#xf4;" horiz-adv-x="641" 
d="M635 457q0 -45 -17.5 -117t-71.5 -164t-157 -182q-35 -10 -61 -10q-62 0 -113.5 39t-82 113t-30.5 169q0 91 53.5 195.5t133 174.5t149.5 70q42 0 88 -33t77.5 -97.5t31.5 -157.5zM549 414q0 33 -9 75.5t-27.5 78t-55.5 61.5t-92 26q-52 0 -74 -28q-13 -15 -34 -56.5
t-37.5 -98t-16.5 -116.5q0 -70 15 -134t50 -107t90 -43q38 0 68 10q57 60 90 153t33 179zM657 868h-43l-82 205l-227 -205h-45l247 326h99z" />
    <glyph glyph-name="odieresis" unicode="&#xf6;" horiz-adv-x="641" 
d="M635 457q0 -45 -17.5 -117t-71.5 -164t-157 -182q-35 -10 -61 -10q-62 0 -113.5 39t-82 113t-30.5 169q0 91 53.5 195.5t133 174.5t149.5 70q42 0 88 -33t77.5 -97.5t31.5 -157.5zM549 414q0 33 -9 75.5t-27.5 78t-55.5 61.5t-92 26q-52 0 -74 -28q-13 -15 -34 -56.5
t-37.5 -98t-16.5 -116.5q0 -70 15 -134t50 -107t90 -43q38 0 68 10q57 60 90 153t33 179zM726 979q0 -30 -22 -53t-52 -23t-52 23t-22 53q0 29 21.5 51.5t52.5 22.5q19 0 36.5 -10.5t27.5 -28t10 -35.5zM429 979q0 -31 -21.5 -53.5t-52.5 -22.5q-29 0 -51.5 22.5t-22.5 53.5
q0 32 21 53t53 21q31 0 52.5 -22.5t21.5 -51.5z" />
    <glyph glyph-name="otilde" unicode="&#xf5;" horiz-adv-x="641" 
d="M635 457q0 -45 -17.5 -117t-71.5 -164t-157 -182q-35 -10 -61 -10q-62 0 -113.5 39t-82 113t-30.5 169q0 91 53.5 195.5t133 174.5t149.5 70q42 0 88 -33t77.5 -97.5t31.5 -157.5zM549 414q0 33 -9 75.5t-27.5 78t-55.5 61.5t-92 26q-52 0 -74 -28q-13 -15 -34 -56.5
t-37.5 -98t-16.5 -116.5q0 -70 15 -134t50 -107t90 -43q38 0 68 10q57 60 90 153t33 179zM743 1081q-15 -63 -39 -102t-55 -57.5t-66 -18.5q-46 0 -121 43q-35 23 -56.5 33t-43.5 10q-56 0 -92 -86h-41q60 176 164 176q44 0 102 -35q88 -49 117 -49q61 0 90 86h41z" />
    <glyph glyph-name="uacute" unicode="&#xfa;" horiz-adv-x="831" 
d="M838 182q-62 -83 -129 -138.5t-91 -55.5q-15 0 -38 20.5t-23 46.5q0 18 9.5 67.5l15.5 78.5l67 309l-4 4q-115 -199 -247.5 -362.5t-207.5 -163.5q-32 0 -32 57q0 33 5 70.5t13.5 81.5t24.5 120l32 172q3 3 13 52.5t10 64.5q0 23 -18 23t-65.5 -46.5t-98.5 -117.5l-19 18
q18 30 67 94t108 118.5t102 54.5q12 0 25.5 -9.5t13.5 -38.5q0 -38 -17 -114l-11.5 -60.5t-10.5 -52.5l-43 -211q0 1 -7.5 -45.5t-7.5 -60.5q0 -29 19 -29q27 0 111.5 100t167.5 230t114 227q7 25 42.5 43.5t49.5 18.5q6 0 6 -25q0 -23 -14 -98l-90 -422q0 -1 -6 -36t-6 -48
q0 -25 18 -25q41 0 125 107zM828 1194l-299 -326h-50l218 326h131z" />
    <glyph glyph-name="ugrave" unicode="&#xf9;" horiz-adv-x="831" 
d="M838 182q-62 -83 -129 -138.5t-91 -55.5q-15 0 -38 20.5t-23 46.5q0 18 9.5 67.5l15.5 78.5l67 309l-4 4q-115 -199 -247.5 -362.5t-207.5 -163.5q-32 0 -32 57q0 33 5 70.5t13.5 81.5t24.5 120l32 172q3 3 13 52.5t10 64.5q0 23 -18 23t-65.5 -46.5t-98.5 -117.5l-19 18
q18 30 67 94t108 118.5t102 54.5q12 0 25.5 -9.5t13.5 -38.5q0 -38 -17 -114l-11.5 -60.5t-10.5 -52.5l-43 -211q0 1 -7.5 -45.5t-7.5 -60.5q0 -29 19 -29q27 0 111.5 100t167.5 230t114 227q7 25 42.5 43.5t49.5 18.5q6 0 6 -25q0 -23 -14 -98l-90 -422q0 -1 -6 -36t-6 -48
q0 -25 18 -25q41 0 125 107zM731 868h-51l-231 326h131z" />
    <glyph glyph-name="ucircumflex" unicode="&#xfb;" horiz-adv-x="831" 
d="M838 182q-62 -83 -129 -138.5t-91 -55.5q-15 0 -38 20.5t-23 46.5q0 18 9.5 67.5l15.5 78.5l67 309l-4 4q-115 -199 -247.5 -362.5t-207.5 -163.5q-32 0 -32 57q0 33 5 70.5t13.5 81.5t24.5 120l32 172q3 3 13 52.5t10 64.5q0 23 -18 23t-65.5 -46.5t-98.5 -117.5l-19 18
q18 30 67 94t108 118.5t102 54.5q12 0 25.5 -9.5t13.5 -38.5q0 -38 -17 -114l-11.5 -60.5t-10.5 -52.5l-43 -211q0 1 -7.5 -45.5t-7.5 -60.5q0 -29 19 -29q27 0 111.5 100t167.5 230t114 227q7 25 42.5 43.5t49.5 18.5q6 0 6 -25q0 -23 -14 -98l-90 -422q0 -1 -6 -36t-6 -48
q0 -25 18 -25q41 0 125 107zM754 868h-43l-82 205l-227 -205h-45l247 326h99z" />
    <glyph glyph-name="udieresis" unicode="&#xfc;" horiz-adv-x="831" 
d="M838 182q-62 -83 -129 -138.5t-91 -55.5q-15 0 -38 20.5t-23 46.5q0 18 9.5 67.5l15.5 78.5l67 309l-4 4q-115 -199 -247.5 -362.5t-207.5 -163.5q-32 0 -32 57q0 33 5 70.5t13.5 81.5t24.5 120l32 172q3 3 13 52.5t10 64.5q0 23 -18 23t-65.5 -46.5t-98.5 -117.5l-19 18
q18 30 67 94t108 118.5t102 54.5q12 0 25.5 -9.5t13.5 -38.5q0 -38 -17 -114l-11.5 -60.5t-10.5 -52.5l-43 -211q0 1 -7.5 -45.5t-7.5 -60.5q0 -29 19 -29q27 0 111.5 100t167.5 230t114 227q7 25 42.5 43.5t49.5 18.5q6 0 6 -25q0 -23 -14 -98l-90 -422q0 -1 -6 -36t-6 -48
q0 -25 18 -25q41 0 125 107zM822 979q0 -30 -22 -53t-52 -23t-52 23t-22 53q0 29 21.5 51.5t52.5 22.5q19 0 36.5 -10.5t27.5 -28t10 -35.5zM525 979q0 -31 -21.5 -53.5t-52.5 -22.5q-29 0 -51.5 22.5t-22.5 53.5q0 32 21 53t53 21q31 0 52.5 -22.5t21.5 -51.5z" />
    <glyph glyph-name="dagger" unicode="&#x2020;" horiz-adv-x="725" 
d="M809 840l-49 -215h-21q-32 38 -78.5 59.5t-150.5 24.5q-12 -52 -12 -107q0 -60 28 -108q-117 -211 -245 -863h-56q140 579 140 809q0 4 -1 21l-2 33q20 22 34.5 43t33.5 64t37 106q-115 0 -166 -22t-94 -60h-29l47 215h23q24 -34 47.5 -49t65.5 -23t112 -14
q7 84 14.5 153t16 100.5t31.5 84.5q14 35 14 59q0 39 -60 57q-15 5 -16 6l6 27h248l-6 -31q-75 -17 -94.5 -56.5t-24.5 -127.5q-3 -61 -13.5 -99t-37.5 -98q-20 -48 -27 -75q107 1 159.5 22.5t98.5 63.5h27z" />
    <glyph glyph-name="degree" unicode="&#xb0;" horiz-adv-x="874" 
d="M909 942q0 -90 -43.5 -165t-119 -119t-164.5 -44q-88 0 -164.5 44t-120 119t-43.5 165q0 91 44.5 165.5t119.5 118.5t164 44t164.5 -44t119 -119t43.5 -165zM819 942q0 65 -32 121t-87.5 87.5t-117.5 31.5q-98 0 -168 -70t-70 -170q0 -98 69.5 -167.5t168.5 -69.5
q63 0 118.5 31.5t87 87t31.5 118.5z" />
    <glyph glyph-name="cent" unicode="&#xa2;" horiz-adv-x="598" 
d="M690 1036q0 -31 -11.5 -51t-31.5 -20q-3 0 -30 8t-39 10l-209 -575q83 16 188 90l21 -25q-146 -101 -232 -129l-117 -324l-39 15l107 297q-24 -4 -39 -4q-44 0 -69 36t-25 85q0 83 30.5 193t85 212.5t129.5 169t160 66.5l66 178l39 -17l-62 -170q57 -13 67.5 -19
t10.5 -26zM535 993q-8 1 -15 1.5t-22 0.5q-55 0 -88 -38.5t-62 -120.5q-9 -26 -29 -100.5t-31.5 -138.5t-11.5 -118q0 -55 48 -71z" />
    <glyph glyph-name="sterling" unicode="&#xa3;" horiz-adv-x="1004" 
d="M1108 1186l-117 -96q-103 116 -176 116q-89 0 -126 -63.5t-60 -169.5l-62 -295q13 0 22 -0.5t20 -0.5q60 0 136 3.5t140.5 8.5t101.5 9q0 -45 -18 -57q-46 0 -225 -6t-187 -6l-31 -154q0 -2 -4 -22q-17 -84 -30 -122t-51.5 -87t-127.5 -140q80 7 148 7q30 0 178 -13.5
t135 -13.5q81 0 189 131l24 -18q-22 -33 -42.5 -57.5t-78.5 -82.5q-29 -39 -48.5 -53t-59.5 -14q-10 0 -51.5 5l-77.5 9q-90 10 -117 10q-13 0 -45 -2q-16 0 -56 -1t-96.5 -5t-103.5 -12l-27 -23l-22 19q96 100 131.5 144.5t57.5 103.5t42 170l39 219q-24 -6 -164 -6
q-53 0 -73 2l26 53q29 -12 55 -12q81 0 166 10l33 166q25 126 63 202t105 127q52 42 125.5 68.5t126.5 26.5q78 0 160 -76l37 16z" />
    <glyph glyph-name="section" unicode="&#xa7;" horiz-adv-x="811" 
d="M805 1280q0 -13 -17 -40.5t-36 -27.5q-9 0 -19.5 5.5t-23 14.5l-35.5 25q-69 54 -115 54q-45 0 -103.5 -43.5t-58.5 -175.5q0 -78 39.5 -181t114.5 -239q69 -128 115.5 -236t46.5 -192q0 -79 -33 -138t-72.5 -92.5t-85.5 -62.5q37 -96 37 -178q0 -83 -39.5 -163
t-112 -130.5t-161.5 -50.5q-74 0 -140.5 33.5t-66.5 58.5q0 12 18 44t37 32q20 0 56 -31q84 -70 155 -70q42 0 80.5 26.5t63 73.5t24.5 107q0 94 -39.5 190t-144.5 291q-67 125 -102 212.5t-35 170.5q0 112 55.5 178t138.5 117q-37 98 -37 178q0 70 27 133.5t72 108.5
t98 69.5t102 24.5q50 0 123.5 -32t73.5 -64zM621 203q0 63 -26 135.5t-83 181.5q-150 290 -150 301q-118 -72 -118 -217q0 -132 143 -387q66 -115 119 -227q44 29 79.5 77.5t35.5 135.5z" />
    <glyph glyph-name="bullet" unicode="&#x2022;" horiz-adv-x="768" 
d="M774 723q0 -72 -36 -133.5t-98 -98t-134 -36.5q-73 0 -135 36.5t-97.5 98.5t-35.5 133q0 111 77.5 189.5t190.5 78.5q112 0 190 -78t78 -190z" />
    <glyph glyph-name="paragraph" unicode="&#xb6;" horiz-adv-x="981" 
d="M1079 1065l-6 -53q-9 -2 -88 -11q-109 -10 -156 -18t-100 -25l-22 -1097q27 -8 196 -43l-6 -51q-158 18 -262.5 60t-161 90.5t-96.5 107.5q-68 100 -119 218t-51 169q0 38 42 144t112 212.5t161 163.5q173 107 557 133zM674 940q-61 -16 -95 -49t-53 -90
q-20 -65 -26 -209.5t-6 -343.5q0 -136 15 -205t43.5 -96t100.5 -64z" />
    <glyph glyph-name="germandbls" unicode="&#xdf;" horiz-adv-x="788" 
d="M860 1122q0 -109 -77.5 -199t-196.5 -151v-4q200 -31 200 -276q0 -96 -30 -186t-83 -164t-119.5 -116t-131.5 -42q-73 0 -103 39.5t-30 78.5q3 12 22 33.5t68 32.5q2 -69 13 -107t54 -38q53 0 106.5 64.5t87.5 172t34 227.5q0 150 -65.5 190t-153.5 40l-6 20
q58 28 110.5 64t98 85.5t72 114t26.5 146.5q0 84 -45.5 132t-114.5 48q-91 0 -132.5 -88.5t-76.5 -269.5l-182 -953q-29 -159 -75.5 -269t-152.5 -196q-111 -90 -249 -90q-54 0 -72 13t-18 43q0 31 22 40t39 9q3 0 28.5 -1.5l51 -3t28.5 -1.5q93 0 145.5 36t81.5 110.5
t56 223.5q5 28 16 83t15 77l117 619q34 181 59.5 288.5t64 194.5t98.5 136.5t150 49.5q58 0 116 -29.5t96 -88.5t38 -138z" />
    <glyph glyph-name="registered" unicode="&#xae;" horiz-adv-x="1665" 
d="M1710 723q0 -204 -102 -378.5t-277 -276t-379 -101.5t-378.5 101.5t-276.5 274.5t-102 380q0 208 102.5 382t277 275t377.5 101t378 -101t277.5 -275t102.5 -382zM1645 723q0 190 -94 349t-253 251t-346 92q-185 0 -345 -92.5t-253.5 -251.5t-93.5 -348
q0 -187 92.5 -345.5t252 -251.5t347.5 -93t347.5 92.5t252.5 251.5t93 346zM1378 266h-196l-314 432h-82v-252q0 -67 6 -94t31.5 -39t89.5 -12v-35h-391v35q53 0 77 14.5t29 42.5t5 91v557q0 64 -4.5 91t-25 40t-68.5 14v39h411q147 0 232.5 -66.5t85.5 -173.5
q0 -179 -238 -237l223 -318q29 -41 52.5 -61.5t37.5 -25.5t39 -7v-35zM1092 938q0 42 -14 78.5t-43.5 65.5t-68.5 45t-89 16q-40 0 -91 -17v-383q136 0 221 41t85 154z" />
    <glyph glyph-name="copyright" unicode="&#xa9;" horiz-adv-x="1665" 
d="M1710 723q0 -204 -102 -378.5t-277 -276t-379 -101.5t-378.5 101.5t-276.5 274.5t-102 380q0 208 102.5 382t277 275t377.5 101t378 -101t277.5 -275t102.5 -382zM1645 723q0 190 -94 349t-253 251t-346 92q-185 0 -345 -92.5t-253.5 -251.5t-93.5 -348
q0 -187 92.5 -345.5t252 -251.5t347.5 -93t347.5 92.5t252.5 251.5t93 346zM1366 461q-146 -217 -408 -217q-110 0 -202.5 39t-157 104t-100 151t-35.5 179q0 97 37.5 187t108 159t168.5 108t218 39q55 0 92.5 -8t104.5 -31q25 -8 41 -8q34 0 51 47h43l21 -299h-41
q-75 252 -324 252q-102 0 -180 -49.5t-120 -143t-42 -222.5q0 -54 7.5 -117t41 -140t107 -130.5t196.5 -53.5q210 0 334 172z" />
    <glyph glyph-name="trademark" unicode="&#x2122;" horiz-adv-x="2134" 
d="M2052 571h-346v33q54 0 78 10t32.5 39t8.5 92v515h-4l-308 -689h-16l-317 676h-4v-508q0 -66 5.5 -91t28.5 -34.5t82 -9.5v-33h-286v33q56 0 79.5 10.5t29 36.5t5.5 94v459q0 61 -5.5 86.5t-30 39.5t-78.5 18v32h237l295 -635l287 635h227v-32q-78 -4 -96.5 -24.5
t-18.5 -104.5v-474q0 -90 19 -115t96 -26v-33zM934 1192h-25q-11 82 -40.5 110.5t-116.5 28.5h-93v-565q0 -73 8.5 -106.5t33 -44.5t75.5 -11v-33h-356v33q51 0 75 11t33 44t9 107v565h-93q-51 0 -81.5 -9t-49.5 -38t-26 -92h-27v188h674v-188z" />
    <glyph glyph-name="acute" unicode="&#xb4;" horiz-adv-x="682" 
d="M752 1194l-299 -326h-50l218 326h131z" />
    <glyph glyph-name="dieresis" unicode="&#xa8;" horiz-adv-x="682" 
d="M793 979q0 -30 -22 -53t-52 -23t-52 23t-22 53q0 29 21.5 51.5t52.5 22.5q19 0 36.5 -10.5t27.5 -28t10 -35.5zM496 979q0 -31 -21.5 -53.5t-52.5 -22.5q-29 0 -51.5 22.5t-22.5 53.5q0 32 21 53t53 21q31 0 52.5 -22.5t21.5 -51.5z" />
    <glyph glyph-name="notequal" unicode="&#x2260;" horiz-adv-x="1124" 
d="M1087 289h-602l-163 -289h-111l166 289h-340v96h393l158 279h-551v96h604l164 291h108l-163 -291h337v-96h-391l-155 -279h546v-96z" />
    <glyph glyph-name="AE" unicode="&#xc6;" horiz-adv-x="1536" 
d="M1602 1245q0 -86 -29 -190l-31 -2q0 57 -29 121q-4 10 -32 10l-328 4q-3 -10 -5.5 -21l-8.5 -37l-105 -460l273 4q51 0 72.5 18.5t45.5 100.5h45q-46 -151 -77 -320l-41 -2q8 56 8 121q0 14 -6 18.5t-31 4.5q-8 0 -13.5 -0.5t-13.5 -0.5l-137 -4l-137 2l-76 -346
q-14 -49 -14 -108q0 -54 29 -78t78.5 -29.5t150.5 -5.5q96 0 145 7.5t92.5 42t88.5 112.5l30 -25q-20 -49 -45 -99.5t-49 -86.5h-831l12 37q92 9 112 22q12 7 20.5 21t20.5 54t39 155l74 325q-113 -2 -266 -6l-172 -266q-11 -15 -44.5 -64.5l-85.5 -127.5t-52 -80
q0 -17 114 -17l90 -6l-14 -45q-10 1 -41.5 1t-52.5 1q-32 1 -59 1.5t-76 0.5q-77 0 -254 -6v53q79 3 118.5 10.5t69.5 29.5t67 69t109 151l338 484l53 77l78 107l97.5 135.5t41.5 69.5q0 17 -120 17q-72 0 -93 -3l17 45h393q22 0 129 2t123 2h195zM1024 1167l-4 4
q-182 -249 -256 -364l-98 -152q148 3 245 9z" />
    <glyph glyph-name="Oslash" unicode="&#xd8;" 
d="M1397 719q0 -133 -52 -265.5t-145.5 -239t-220 -169.5t-274.5 -63q-140 0 -218.5 40t-140.5 95l-131 -140l-37 35l133 144q-129 163 -129 372q0 141 58.5 277t157.5 241t229 166.5t266 61.5q198 0 338 -133l127 135l39 -37l-129 -137q53 -62 81.5 -137.5t38 -136.5
t9.5 -109zM1167 1073q-110 156 -286 156q-106 0 -206 -53t-177 -150t-121.5 -230t-44.5 -282q0 -164 57 -276zM1249 766q0 134 -53 258l-780 -834q66 -101 150 -135.5t147 -34.5q73 0 161.5 37t157.5 107q124 123 170.5 306t46.5 296z" />
    <glyph glyph-name="infinity" unicode="&#x221e;" horiz-adv-x="1460" 
d="M1407 526q0 -186 -115 -307q-50 -53 -111.5 -83t-123.5 -30q-60 0 -112 25t-101.5 80t-98.5 139l-24 43q-44 -83 -90.5 -134.5t-103 -75t-130.5 -23.5q-100 0 -177.5 47t-122 132t-44.5 189q0 102 40.5 186.5t110.5 132.5t156 48q112 0 183 -68q54 -54 110 -159
q48 108 95 166q95 110 276 110q72 0 128 -19.5t110 -64.5q145 -124 145 -334zM1350 526q0 90 -38 169.5t-104 125t-141 45.5q-104 0 -172 -84q-29 -36 -54.5 -92t-78.5 -196l-12 -29q49 -101 93 -156.5t97.5 -81.5t120.5 -26q83 0 149 41.5t103 115.5t37 168zM625 590
q-38 80 -75 125t-84.5 67.5t-107.5 22.5q-74 0 -130 -35t-87.5 -97t-31.5 -143q0 -79 30.5 -147t83 -106.5t115.5 -38.5q60 0 115 36.5t84 92.5q39 77 77 190z" />
    <glyph glyph-name="plusminus" unicode="&#xb1;" 
d="M1343 811h-528v-473h-94v473h-524v94h524v475h94v-475h528v-94zM1343 0h-1146v94h1146v-94z" />
    <glyph glyph-name="lessequal" unicode="&#x2264;" horiz-adv-x="1124" 
d="M1065 221l-1006 498v51l1006 502v-111l-842 -416l842 -417v-107zM1065 0h-1006v96h1006v-96z" />
    <glyph glyph-name="greaterequal" unicode="&#x2265;" horiz-adv-x="1124" 
d="M1065 723l-1006 -502v111l842 416l-842 417v107l1006 -498v-51zM1065 0h-1006v96h1006v-96z" />
    <glyph glyph-name="yen" unicode="&#xa5;" horiz-adv-x="1067" 
d="M1260 1210q-68 -2 -102 -18t-83 -76l-59 -74q-2 -3 -9 -11l-22.5 -27t-21.5 -27l-45 -55l-95 -117.5l-102 -130.5h332l-13 -58h-352q-7 -13 -21.5 -59t-17.5 -59l-16 -68h379l-13 -57h-383q-28 -119 -43.5 -195t-15.5 -94q0 -28 25.5 -36.5t81.5 -8.5q63 0 116 10l-6 -39
q-39 -12 -115 -12l-143 2q-24 0 -159 -2t-158 -2l6 41q97 0 130 5t54 32q25 31 86 299h-321l12 57h321l43 186h-350l13 58h321l-96 370q-21 79 -34 110t-43.5 44t-96.5 14l6 37h424l-10 -43q-68 -2 -97.5 -9.5t-29.5 -37.5q0 -20 14.5 -89.5t28.5 -125.5l75 -272l193 237
q5 9 59 77t92.5 122t38.5 78q0 16 -30 20t-95 4l7 39l61 -2q24 0 50 -0.5t59 -1.5q83 0 170 6v-41z" />
    <glyph glyph-name="uni00B5" unicode="&#xb5;" horiz-adv-x="1024" 
d="M1012 197q-30 -109 -74 -164.5t-127 -55.5q-54 0 -87.5 37t-33.5 98q0 23 6 50h-6q-48 -90 -98 -137.5t-152 -47.5q-78 0 -109 35.5t-48 93.5h-4q-36 -129 -54 -260l-16 -135q-5 -51 -26.5 -101t-69.5 -50q-26 0 -47 18.5t-21 48.5q0 39 21 78q52 100 84.5 179
t64.5 177.5t78 257.5l123 426h125l-121 -417q0 -1 -4 -11q-27 -97 -27 -147q0 -42 28 -76.5t85 -34.5q79 0 153 119t133 332l68 235h127l-145 -501q-19 -65 -19 -111q0 -74 43 -74q26 0 50.5 28.5t41 62.5t19.5 47h39z" />
    <glyph glyph-name="partialdiff" unicode="&#x2202;" horiz-adv-x="1012" 
d="M995 920q0 -140 -28 -281t-81.5 -263.5t-127.5 -219.5q-143 -187 -355 -187q-154 0 -245.5 91.5t-91.5 244.5q0 157 76.5 296.5t203.5 222.5t270 83q106 0 189 -51q44 -27 72 -58t51 -81h4q10 147 10 186q0 117 -41.5 202t-120 130t-184.5 45q-100 0 -171.5 -37.5
t-129.5 -122.5h-45q35 74 61.5 116t63.5 79q49 51 117 79.5t137 28.5q47 0 94 -13.5t88 -39.5t70 -59q114 -130 114 -391zM911 629q-36 105 -111 165t-173 60q-81 0 -157.5 -49t-121.5 -127q-33 -57 -60 -132t-41 -146.5t-14 -135.5q0 -108 53.5 -172.5t143.5 -64.5
q72 0 152 49.5t147 136.5q70 93 112 188.5t70 227.5z" />
    <glyph glyph-name="summation" unicode="&#x2211;" horiz-adv-x="1460" 
d="M1419 212l-63 -416h-1313v37l670 831l-670 814v39h1278l27 -338h-39q-16 133 -76 194.5t-174 61.5h-740l562 -685l-629 -778h819q54 0 114.5 17t90.5 39q36 25 60.5 71t43.5 121z" />
    <glyph glyph-name="product" unicode="&#x220f;" horiz-adv-x="1686" 
d="M1640 -204h-598v37h35q87 0 125.5 37.5t38.5 118.5v1450h-797v-1450q0 -79 39.5 -117.5t122.5 -38.5h37v-37h-598v37h35q87 0 125.5 37.5t38.5 118.5v1335q0 83 -38.5 119.5t-125.5 36.5h-35v37h1595v-37h-34q-85 0 -124.5 -36.5t-39.5 -119.5v-1335q0 -81 39.5 -118.5
t124.5 -37.5h34v-37z" />
    <glyph glyph-name="pi" unicode="&#x3c0;" horiz-adv-x="1124" 
d="M1049 258q-7 -61 -18.5 -104.5t-31.5 -79.5q-24 -48 -66.5 -76.5t-90.5 -28.5q-35 0 -69.5 16.5t-53.5 43.5q-32 44 -46 107.5t-14 168.5q0 62 7 158q3 27 5 52.5t9 98.5l5.5 48l6.5 55l6 53h-260l-4 -61q-17 -294 -39.5 -450t-58.5 -223t-94 -67q-34 0 -59 25t-25 59
q0 27 12 52t43 67q46 59 68.5 113t37.5 143q15 85 22.5 160.5t12.5 181.5h-45q-50 0 -74 -6.5t-51 -26.5q-46 -36 -90 -110h-39q52 160 116.5 224t174.5 64h703v-145h-242q-17 -109 -26 -222.5t-9 -215.5q0 -93 33 -142t92 -49q97 0 117 117h35z" />
    <glyph glyph-name="integral" unicode="&#x222b;" horiz-adv-x="561" 
d="M561 1755q0 -29 -12.5 -53t-34 -36.5t-47.5 -12.5q-36 0 -76 35q-20 20 -39 20q-41 0 -41 -63q0 -46 11 -146q18 -204 27 -371t9 -294l-2 -121l-14 -471q-6 -190 -49 -320q-22 -67 -68 -104t-106 -37q-54 0 -86.5 33.5t-32.5 87.5q0 44 25 71t65 27q42 0 70 -33
q13 -14 24 -22t25 -8q39 0 39 61q0 37 -10 119q-20 170 -29 395q-3 104 -6 229q-2 70 -2 154l16 553q6 191 66 317q19 40 63.5 69.5t87.5 29.5q31 0 61.5 -15t48 -41t17.5 -53z" />
    <glyph glyph-name="ordfeminine" unicode="&#xaa;" horiz-adv-x="469" 
d="M606 924q-37 -45 -75 -74t-58 -29q-12 0 -28.5 11t-16.5 49q0 43 18 106l-4 4l-47 -55q-36 -42 -76 -79.5t-57 -37.5q-40 0 -51.5 27t-11.5 65q0 60 29.5 132.5t83.5 131.5t124 82q5 2 41.5 8.5t67.5 11t45 7.5q-22 -81 -55 -219t-33 -170q0 -12 8 -12q10 0 27.5 14.5
l46.5 40.5q8 -4 12.5 -7t9.5 -7zM502 1214q-59 -4 -93.5 -13.5t-60.5 -39.5q-32 -34 -53 -113t-21 -120q0 -31 17 -31q6 0 56 38.5t90 89t40 103.5l19 68q0 12 6 18z" />
    <glyph glyph-name="ordmasculine" unicode="&#xba;" horiz-adv-x="426" 
d="M559 1102q0 -53 -33 -129t-125 -148q-18 -6 -41 -6q-60 0 -102.5 52t-42.5 141q0 57 34.5 118.5t85.5 103.5t97 42q28 0 57 -20t49.5 -60t20.5 -94zM498 1075q0 47 -27 94.5t-86 47.5q-48 0 -73 -66t-25 -109q0 -62 22.5 -112.5t73.5 -50.5q27 0 37 6q43 39 60.5 98.5
t17.5 91.5z" />
    <glyph glyph-name="uni2126" unicode="&#x2126;" horiz-adv-x="1573" 
d="M1518 0h-568l23 279q97 39 158 102t89.5 154.5t28.5 218.5q0 259 -123 405q-64 76 -152 117t-192 41q-102 0 -187 -39.5t-147 -112.5t-95.5 -175t-33.5 -222q0 -133 38 -242.5t106 -171.5q31 -28 57 -42.5t76 -32.5l22 -279h-563v279h35q3 -61 31 -82q26 -20 55.5 -27.5
t83.5 -7.5h270v69q-137 40 -236.5 118.5t-150.5 190t-51 248.5q0 130 50.5 241t142.5 191t218.5 123t278.5 43q154 0 283.5 -43.5t221 -121.5t143 -189.5t51.5 -243.5q0 -137 -54.5 -253t-154.5 -195.5t-230 -108.5l-8 -69h275q88 0 125 24.5t45 92.5h39v-279z" />
    <glyph glyph-name="ae" unicode="&#xe6;" horiz-adv-x="831" 
d="M870 664q0 -74 -53 -135t-130.5 -102.5t-162.5 -66.5q-22 -108 -22 -202q0 -30 9.5 -51t41.5 -21q60 0 201 96l14 11l18 -25q-29 -29 -141.5 -105.5t-177.5 -76.5q-45 0 -58.5 46t-13.5 87q0 29 8 84l-4 4q-75 -97 -155 -159t-113 -62q-55 0 -55 125q0 46 16 134
t68 198.5t155 195.5q112 89 191 94q79 4 112 15q3 1 5 1.5t6 0.5q8 0 8 -7l-18.5 -42.5t-20.5 -47.5l4 -4q53 41 108.5 70t94.5 29q33 0 49 -23t16 -61zM774 625q0 51 -47 51q-75 0 -118.5 -83t-73.5 -200q151 63 195 126.5t44 105.5zM547 645q-38 -7 -68 -10
q-79 -8 -109 -22.5t-53 -41.5q-65 -77 -96 -215t-31 -198q0 -66 31 -66q28 0 75 41t85.5 95t38.5 73q16 72 48 170t79 174z" />
    <glyph glyph-name="oslash" unicode="&#xf8;" horiz-adv-x="641" 
d="M639 741l-57 -86q53 -84 53 -198q0 -94 -52 -209t-132 -197q-44 -44 -63.5 -55.5t-59.5 -11.5q-81 0 -146 69l-51 -78l-35 25l60 90q-25 47 -39.5 91.5t-14.5 121.5q0 91 53.5 196.5t133 175.5t149.5 70q23 0 60 -17t59 -40l49 78zM494 594q-56 61 -129 61
q-56 0 -93.5 -58t-53 -128t-15.5 -111q0 -92 24 -163zM549 414q0 70 -31 143l-272 -407q21 -39 46 -58.5t66 -19.5q23 0 39.5 2.5t23 6.5t21.5 19q56 67 81.5 162t25.5 152z" />
    <glyph glyph-name="questiondown" unicode="&#xbf;" horiz-adv-x="662" 
d="M621 596q0 -37 -17 -63.5t-37.5 -41t-31.5 -14.5q-22 0 -39 32.5t-17 63.5q0 6 13.5 30.5t34 43.5t42.5 19q52 0 52 -70zM559 319q-8 -131 -54.5 -211t-213.5 -124q-119 -31 -177.5 -75t-58.5 -159q0 -72 46.5 -132t134.5 -60q56 0 87.5 17.5t53.5 41.5l20 -2q2 -8 2 -25
q0 -35 -32 -82q-12 -14 -19 -32q-69 -27 -127 -27q-100 0 -170.5 65t-70.5 171q0 53 26 134t55 130q38 60 79 82t98 35q89 21 133 35.5t74.5 40.5t50 69t32.5 111z" />
    <glyph glyph-name="exclamdown" unicode="&#xa1;" horiz-adv-x="342" 
d="M348 707q0 -37 -17 -63.5t-37.5 -41t-31.5 -14.5q-22 0 -38.5 33.5t-16.5 62.5q0 5 13.5 29.5t34 43.5t42.5 19q51 0 51 -69zM242 336l-101 -590l-37 -215q0 -31 -9 -39.5t-40 -13.5q-21 -4 -46.5 -9.5t-31.5 -5.5t-6 11q0 4 29 111l47 171.5t19 67.5l73 266l35 141
q13 31 25 105q10 2 16.5 3t8.5 1h3q9 0 15 -4z" />
    <glyph glyph-name="logicalnot" unicode="&#xac;" 
d="M1313 266h-92v520h-1055v95h1147v-615z" />
    <glyph glyph-name="radical" unicode="&#x221a;" horiz-adv-x="1124" 
d="M1124 1870l-311 -1948l-496 1022l-198 -92l-35 63l301 152l403 -823h5l258 1626h73z" />
    <glyph glyph-name="florin" unicode="&#x192;" horiz-adv-x="1130" 
d="M1118 1217q0 -60 -112 -60l-45 2q-78 0 -119.5 -35.5t-61.5 -108t-43 -227.5h232l-15 -59h-225l-53 -369q-27 -187 -59.5 -310.5t-84.5 -216t-133 -167.5q-149 -139 -325 -139q-94 0 -94 49q0 55 83 55q9 0 52 -2t47 -2q106 0 175.5 48t111 134t64.5 192.5t44 258.5
l70 471l-150 2q2 22 10 49l150 4q16 107 52 202.5t126 178.5q56 52 119 76.5t110 24.5q35 0 54.5 -14t19.5 -37z" />
    <glyph glyph-name="approxequal" unicode="&#x2248;" horiz-adv-x="1124" 
d="M1073 874q-20 -152 -93.5 -236.5t-188.5 -84.5q-56 0 -123.5 26.5t-180.5 90.5q-140 78 -211 78q-72 0 -118.5 -49.5t-59.5 -137.5h-47q20 151 93 236.5t182 85.5q48 0 123 -25q56 -21 208 -102q118 -62 193 -62q41 0 68.5 13.5t54.5 46.5q39 47 49 120h51zM1073 487
q-20 -152 -93.5 -236.5t-188.5 -84.5q-56 0 -121 25t-183 90q-71 42 -121 60.5t-90 18.5q-72 0 -118.5 -49t-59.5 -137h-47q12 98 49 170.5t95 111t131 38.5q48 0 123 -25q52 -16 208 -100q118 -62 193 -62q41 0 68.5 13.5t54.5 46.5q39 47 49 120h51z" />
    <glyph glyph-name="uni2206" unicode="&#x2206;" horiz-adv-x="1253" 
d="M1227 0h-1200l628 1386zM991 82l-399 967l-440 -967h839z" />
    <glyph glyph-name="guillemotleft" unicode="&#xab;" horiz-adv-x="811" 
d="M868 766l-288 -383l129 -383h-37l-242 383l395 383h43zM543 766l-285 -383l123 -383h-35l-242 385l398 381h41z" />
    <glyph glyph-name="guillemotright" unicode="&#xbb;" horiz-adv-x="811" 
d="M786 381l-397 -381h-41l287 383l-125 383h35zM461 383l-395 -383h-43l288 383l-129 383h37z" />
    <glyph glyph-name="ellipsis" unicode="&#x2026;" horiz-adv-x="2048" 
d="M1821 72q0 -7 -13.5 -31t-34 -42.5t-42.5 -18.5q-52 0 -52 69q0 53 34 86t52 33q15 0 28.5 -16t20.5 -39.5t7 -40.5zM1094 72q0 -7 -13.5 -31t-34 -42.5t-42.5 -18.5q-52 0 -52 69q0 53 34 86t52 33q15 0 28.5 -16t20.5 -39.5t7 -40.5zM367 72q0 -7 -13.5 -31
t-34.5 -42.5t-43 -18.5q-51 0 -51 69q0 53 34 86t52 33q15 0 28.5 -16t20.5 -39.5t7 -40.5z" />
    <glyph glyph-name="uni00A0" unicode="&#xa0;" horiz-adv-x="492" 
 />
    <glyph glyph-name="Agrave" unicode="&#xc0;" horiz-adv-x="1130" 
d="M1128 39q-60 -45 -161 -45q-2 0 -19 1.5t-37 2.5t-31.5 1.5t-25.5 0.5h-76q-76 0 -151 -4l4 47q80 5 109.5 20.5t38.5 54.5t14 146l10 221q-51 7 -144 7q-106 0 -178 -7l-73 -133q-32 -56 -61 -115.5t-46.5 -103t-17.5 -57.5q0 -24 29 -30.5t91 -8.5l-6 -41
q-13 0 -47.5 1.5t-73.5 2.5l-59.5 1.5t-46.5 0.5h-174l12 35q59 2 88 5.5t48 13.5t34 29.5t47 74.5l51 86l115 205q8 12 57.5 94.5l144.5 233.5l188 290t153 213h29l-41 -1092q0 -10 -0.5 -16t-0.5 -13q0 -51 18.5 -82.5t72.5 -31.5q42 0 116 31v-39zM829 1034l-4 4
q-50 -71 -163 -250l-27 -44l-48 -79.5l-46.5 -76.5t-22.5 -37q54 -8 150 -8q61 0 137 6zM1109 1355h-51l-231 326h131z" />
    <glyph glyph-name="Atilde" unicode="&#xc3;" horiz-adv-x="1130" 
d="M1128 39q-60 -45 -161 -45q-2 0 -19 1.5t-37 2.5t-31.5 1.5t-25.5 0.5h-76q-76 0 -151 -4l4 47q80 5 109.5 20.5t38.5 54.5t14 146l10 221q-51 7 -144 7q-106 0 -178 -7l-73 -133q-32 -56 -61 -115.5t-46.5 -103t-17.5 -57.5q0 -24 29 -30.5t91 -8.5l-6 -41
q-13 0 -47.5 1.5t-73.5 2.5l-59.5 1.5t-46.5 0.5h-174l12 35q59 2 88 5.5t48 13.5t34 29.5t47 74.5l51 86l115 205q8 12 57.5 94.5l144.5 233.5l188 290t153 213h29l-41 -1092q0 -10 -0.5 -16t-0.5 -13q0 -51 18.5 -82.5t72.5 -31.5q42 0 116 31v-39zM829 1034l-4 4
q-50 -71 -163 -250l-27 -44l-48 -79.5l-46.5 -76.5t-22.5 -37q54 -8 150 -8q61 0 137 6zM1219 1569q-15 -63 -39 -102t-55 -57.5t-66 -18.5q-46 0 -121 43q-35 23 -56.5 33t-43.5 10q-56 0 -92 -86h-41q60 176 164 176q44 0 102 -35q88 -49 117 -49q61 0 90 86h41z" />
    <glyph glyph-name="Otilde" unicode="&#xd5;" 
d="M1397 719q0 -133 -52.5 -266.5t-145.5 -239.5t-220.5 -168.5t-273.5 -62.5q-133 0 -234 50t-165 131.5t-94 176t-30 182.5q0 196 101 370.5t265.5 278t344.5 103.5q117 0 210.5 -44t159 -121t100 -178t34.5 -212zM1249 766q0 129 -44 235t-128.5 167t-195.5 61
q-104 0 -201.5 -51t-177 -147t-125 -231t-45.5 -294q0 -146 51 -256t138 -170t192 -60q73 0 161 37t158 107q124 123 170.5 305.5t46.5 296.5zM1153 1569q-15 -63 -39 -102t-55 -57.5t-66 -18.5q-46 0 -121 43q-35 23 -56.5 33t-43.5 10q-56 0 -92 -86h-41q60 176 164 176
q44 0 102 -35q88 -49 117 -49q61 0 90 86h41z" />
    <glyph glyph-name="OE" unicode="&#x152;" horiz-adv-x="1430" 
d="M1507 1264q0 -36 -7 -86.5t-23 -96.5h-31q-7 61 -16 83t-38.5 29t-107.5 7q-109 0 -229 -10l-113 -506q262 0 322 10q20 4 33.5 25.5t37.5 93.5h37l-69 -299h-39q8 39 8 88q0 20 -11 26t-52 6q-14 0 -25 -0.5t-25 -0.5l-162 -2q-51 0 -67 -4l-82 -359q-23 -112 -23 -145
q0 -22 5.5 -35t27 -23t63 -15t119.5 -5q98 0 142.5 3t78.5 17t66 45t78 93h43q-35 -70 -57 -108t-68 -109q-39 6 -76.5 7t-177.5 1q-33 0 -221 -4q-144 -6 -230 -6q-188 0 -288.5 98t-130 213t-29.5 205q0 146 55 286.5t145.5 245.5t206 166.5t228.5 61.5q8 0 19 -1l32 -3
t33 -3q56 -6 84 -6h153q139 0 381 17zM922 1206l-41 8.5t-50 4.5q-98 0 -190.5 -55.5t-167 -157.5t-117.5 -238.5t-43 -288.5q0 -154 44 -254.5t108.5 -146t128.5 -45.5q49 0 59 28q22 50 66 242z" />
    <glyph glyph-name="oe" unicode="&#x153;" horiz-adv-x="897" 
d="M934 657q0 -137 -318 -301q-26 -136 -26 -204q0 -40 18 -55t37 -15q31 0 76 24t129 78l16 -26q-68 -56 -155.5 -115t-132.5 -59q-97 0 -97 186h-4q-41 -68 -104 -127t-127 -59q-59 0 -108.5 63t-49.5 166q0 100 57.5 229t146 218.5t175.5 89.5q43 0 79 -46.5t48 -142.5
q122 193 225 193q29 0 72 -20t43 -77zM840 610q0 20 -13.5 40t-50.5 20q-65 0 -97.5 -69t-53.5 -200q95 54 155 110t60 99zM518 461q0 74 -29.5 138.5t-85.5 64.5q-43 0 -78.5 -35.5t-62.5 -94.5t-42 -131t-15 -147q0 -63 22 -128t76 -65q21 0 56 26.5t72.5 79t62 127.5
t24.5 165z" />
    <glyph glyph-name="endash" unicode="&#x2013;" horiz-adv-x="1024" 
d="M1077 330h-1048v108h1048v-108z" />
    <glyph glyph-name="emdash" unicode="&#x2014;" horiz-adv-x="2048" 
d="M2101 330h-2072v108h2072v-108z" />
    <glyph glyph-name="quotedblleft" unicode="&#x201c;" horiz-adv-x="725" 
d="M899 1327l-12 -43q-63 -13 -110.5 -57.5t-73 -102.5t-25.5 -110q0 -37 21.5 -66.5t60.5 -29.5q12 0 20 2q1 -6 1.5 -10.5t0.5 -12.5q-32 -14 -51.5 -31.5t-54.5 -62.5l-12 -17q-49 37 -62.5 74t-13.5 78q0 69 33 154t103 151.5t175 83.5zM530 1327l-10 -43
q-93 -17 -151 -102.5t-58 -167.5q0 -35 23.5 -63.5t81.5 -28.5q1 -6 1.5 -11.5t0.5 -13.5q-75 -29 -115 -109q-46 32 -64 70t-18 84q0 51 20 114t62 122t99 99t128 50z" />
    <glyph glyph-name="quotedblright" unicode="&#x201d;" horiz-adv-x="725" 
d="M860 1174q0 -64 -35 -152.5t-106 -157t-174 -80.5l14 43q65 11 113.5 59t74 108t25.5 104q0 92 -102 92l-8 24q37 17 68 47t48 66q82 -61 82 -153zM494 1169q0 -74 -40.5 -161t-113 -150.5t-158.5 -71.5l15 45q85 17 147 102t62 165q0 94 -105 94l-8 20q54 31 78.5 56
t40.5 59q82 -55 82 -158z" />
    <glyph glyph-name="quoteleft" unicode="&#x2018;" horiz-adv-x="362" 
d="M532 1327l-12 -43q-65 -14 -113 -59t-72 -105t-24 -112q0 -90 105 -90l2 -25q-27 -10 -45 -25.5t-64 -68.5l-12 -15q-36 30 -56 60t-20 90q0 71 33 155t103.5 152t174.5 86z" />
    <glyph glyph-name="quoteright" unicode="&#x2019;" horiz-adv-x="362" 
d="M498 1171q0 -53 -22.5 -117.5t-62.5 -121t-99 -97t-130 -49.5l15 41q62 13 109.5 59t73.5 104t26 106q0 95 -83 95q-14 0 -22 -1l-6 24q36 15 69 48.5t48 64.5q84 -57 84 -156z" />
    <glyph glyph-name="divide" unicode="&#xf7;" 
d="M834 1012q0 -26 -19 -47t-47 -21q-27 0 -47.5 22t-20.5 50q0 27 21 44t47 17q27 0 46.5 -19.5t19.5 -45.5zM1343 524h-1146v92h1146v-92zM834 131q0 -26 -19 -47t-47 -21q-27 0 -47.5 22t-20.5 50q0 26 21 44t47 18t46 -20t20 -46z" />
    <glyph glyph-name="lozenge" unicode="&#x25ca;" horiz-adv-x="1012" 
d="M967 709l-418 -709h-111l-391 709l391 714h111zM854 709l-358 616l-340 -616l340 -615z" />
    <glyph glyph-name="ydieresis" unicode="&#xff;" horiz-adv-x="725" 
d="M711 600q0 -140 -83 -336.5t-211 -381t-261.5 -303t-227.5 -118.5q-78 0 -118 68l65 70q31 -29 48.5 -39.5t53.5 -10.5q59 0 157 76t172.5 187t74.5 213q0 79 -33.5 226.5t-77 259.5t-71.5 112q-35 0 -111 -170l-29 26q49 115 104 192t89 77q20 0 53.5 -60.5t65.5 -156.5
t58.5 -225t33.5 -265h4q178 313 178 496q0 49 -15.5 67.5t-31.5 18.5q-18 0 -29 -17l-20 21q22 42 58 81.5t65 39.5q15 0 27 -50.5t12 -97.5zM769 979q0 -30 -22 -53t-52 -23t-52 23t-22 53q0 29 21.5 51.5t52.5 22.5q19 0 36.5 -10.5t27.5 -28t10 -35.5zM472 979
q0 -31 -21.5 -53.5t-52.5 -22.5q-29 0 -51.5 22.5t-22.5 53.5q0 32 21 53t53 21q31 0 52.5 -22.5t21.5 -51.5z" />
    <glyph glyph-name="Ydieresis" unicode="&#x178;" horiz-adv-x="1044" 
d="M1249 1210q-64 -2 -93 -13t-74 -60t-150 -183l-172 -217q-46 -57 -63.5 -84.5t-30.5 -64.5t-29 -101l-58 -236t-32 -167q0 -27 24 -36t80 -9q64 0 119 10l-6 -39q-44 -12 -113 -12q-14 0 -97 2t-97 2q-30 0 -54.5 -0.5l-70.5 -1.5t-87.5 -2.5t-56.5 -1.5l7 41h28
q68 0 101 6t55 31q17 22 37 95.5t41 166.5l63 280l-30 112l-28.5 110.5l-35.5 141t-35 130.5q-16 62 -46 80.5t-112 21.5l5 37h426l-11 -43q-68 -2 -98.5 -10t-30.5 -37q0 -27 31 -153l22.5 -90t34.5 -130l31 -112l137.5 166.5t173 222.5t72.5 123q0 24 -94 24h-29l4 39
q24 0 92 -2t97 -2q77 0 153 6v-41zM1031 1466q0 -30 -22 -53t-52 -23t-52 23t-22 53q0 29 21.5 51.5t52.5 22.5q19 0 36.5 -10.5t27.5 -28t10 -35.5zM734 1466q0 -31 -21.5 -53.5t-52.5 -22.5q-29 0 -51.5 22.5t-22.5 53.5q0 32 21 53t53 21q31 0 52.5 -22.5t21.5 -51.5z
" />
    <glyph glyph-name="fraction" unicode="&#x2215;" horiz-adv-x="129" 
d="M817 1380l-1114 -1396h-65l1114 1396h65z" />
    <glyph glyph-name="Euro" unicode="&#x20ac;" horiz-adv-x="983" 
d="M1069 1137q-19 -106 -22 -205l-48 -2v8q0 109 -35 170t-82.5 82.5t-93.5 21.5q-135 0 -245.5 -139t-153.5 -352q123 6 184 6q284 5 420 21q1 -7 1 -19q0 -26 -19 -39q-46 0 -225 -6t-187 -6q-34 0 -182 -4q-9 -61 -12 -127q160 8 184 8q254 5 399 20q0 -45 -18 -57
q-45 0 -214 -6t-177 -6q-36 0 -174 -4q1 -245 72 -360t180 -115q89 0 154.5 72.5t121.5 185.5l43 -21q-34 -99 -53 -192q-51 -33 -127 -60.5t-154 -27.5q-102 0 -186 71.5t-132.5 190.5t-49.5 254l-66 -2q-53 0 -74 2l27 53q27 -12 55 -12q12 1 22.5 1.5t35.5 0.5
q3 65 12 129l-78 -2q-53 0 -74 2l27 53q27 -12 55 -12q41 0 78 2q51 235 194 394t336 159q67 0 134.5 -24t146.5 -107z" />
    <glyph glyph-name="guilsinglleft" unicode="&#x2039;" horiz-adv-x="492" 
d="M543 766l-285 -383l123 -383h-35l-242 385l398 381h41z" />
    <glyph glyph-name="guilsinglright" unicode="&#x203a;" horiz-adv-x="492" 
d="M465 383l-397 -383h-39l282 383l-127 383h37z" />
    <glyph glyph-name="uniF001" unicode="&#xf001;" horiz-adv-x="831" 
d="M852 154q-49 -60 -120.5 -113t-108.5 -53q-18 0 -37 14.5t-19 44.5q0 20 25 166l74 367q0 1 1.5 12l3 21.5t1.5 13.5q0 27 -15 33t-55 6h-237l-142 -691q-12 -60 -27.5 -115t-48.5 -119.5t-81 -119t-123 -96.5q-113 -62 -222 -62q-46 0 -68 10.5t-22 39.5q0 55 117 55
q111 0 162.5 8.5t87.5 44t65 119t58 231.5l141 695h-131l12 55h129l11 39q27 109 64 197.5t129.5 165.5t248.5 77q100 0 100 -51q0 -28 -23 -42.5t-67 -14.5q7 0 -57 5t-86 5q-64 0 -100.5 -32t-61 -108.5t-55.5 -240.5h104q154 0 260 27h60l-119 -590q-1 -7 -4.5 -28
t-3.5 -19q0 -22 14 -33q56 5 131 86z" />
    <glyph glyph-name="uniF001" unicode="&#xfb01;" horiz-adv-x="831" 
d="M852 154q-49 -60 -120.5 -113t-108.5 -53q-18 0 -37 14.5t-19 44.5q0 20 25 166l74 367q0 1 1.5 12l3 21.5t1.5 13.5q0 27 -15 33t-55 6h-237l-142 -691q-12 -60 -27.5 -115t-48.5 -119.5t-81 -119t-123 -96.5q-113 -62 -222 -62q-46 0 -68 10.5t-22 39.5q0 55 117 55
q111 0 162.5 8.5t87.5 44t65 119t58 231.5l141 695h-131l12 55h129l11 39q27 109 64 197.5t129.5 165.5t248.5 77q100 0 100 -51q0 -28 -23 -42.5t-67 -14.5q7 0 -57 5t-86 5q-64 0 -100.5 -32t-61 -108.5t-55.5 -240.5h104q154 0 260 27h60l-119 -590q-1 -7 -4.5 -28
t-3.5 -19q0 -22 14 -33q56 5 131 86z" />
    <glyph glyph-name="uniF002" unicode="&#xf002;" horiz-adv-x="831" 
d="M926 1362q0 -1 -2 -14t-2 -17l-246 -1186q-8 -36 -8 -51q0 -20 18 -20q15 0 42 10.5t59 28.5t36 20q8 -4 12.5 -7l10.5 -7q-51 -51 -115 -91t-117 -40q-55 0 -55 57q0 26 31 178l184 877l-4 4q-21 -25 -80 -25l-100 4q-59 0 -96.5 -30t-65.5 -108.5t-53 -223.5h231
l-14 -53h-227l-117 -592q-31 -163 -72 -272.5t-135 -202.5q-140 -138 -301 -138q-96 0 -96 54q0 24 17.5 39.5t47.5 15.5q9 0 48 -2t46 -2q116 0 181 55t92 137t57 232l131 672l-112 14l10 43h114q41 186 116.5 292t154.5 142.5t151 36.5q53 0 88 -33l17 84q10 62 10 68
q-19 1 -44 1q-20 0 -58 -3l6 30q24 3 105 22t85 19q19 0 19 -18z" />
    <glyph glyph-name="uniF002" unicode="&#xfb02;" horiz-adv-x="831" 
d="M926 1362q0 -1 -2 -14t-2 -17l-246 -1186q-8 -36 -8 -51q0 -20 18 -20q15 0 42 10.5t59 28.5t36 20q8 -4 12.5 -7l10.5 -7q-51 -51 -115 -91t-117 -40q-55 0 -55 57q0 26 31 178l184 877l-4 4q-21 -25 -80 -25l-100 4q-59 0 -96.5 -30t-65.5 -108.5t-53 -223.5h231
l-14 -53h-227l-117 -592q-31 -163 -72 -272.5t-135 -202.5q-140 -138 -301 -138q-96 0 -96 54q0 24 17.5 39.5t47.5 15.5q9 0 48 -2t46 -2q116 0 181 55t92 137t57 232l131 672l-112 14l10 43h114q41 186 116.5 292t154.5 142.5t151 36.5q53 0 88 -33l17 84q10 62 10 68
q-19 1 -44 1q-20 0 -58 -3l6 30q24 3 105 22t85 19q19 0 19 -18z" />
    <glyph glyph-name="daggerdbl" unicode="&#x2021;" horiz-adv-x="705" 
d="M856 1036l-47 -211h-23q-68 80 -229 86q-8 -43 -8 -71q0 -50 8.5 -74.5t26.5 -48.5q-73 -124 -113.5 -247t-40.5 -245q0 -82 14 -137q-31 -31 -55.5 -71t-52.5 -117q106 0 165 20t97 64h29l-45 -211h-27q-36 51 -96 65.5t-133 16.5q0 -139 -4.5 -180t-28.5 -93
q-19 -42 -19 -55q0 -32 22.5 -43t47.5 -14l-4 -31h-248l6 26q64 26 83.5 50.5t25.5 93.5q3 46 12.5 85t34.5 95q24 47 29 66q-78 -2 -144 -17.5t-112 -62.5h-29l45 207h27q37 -46 90.5 -62t134.5 -20q8 34 8 73q0 64 -35 115q43 75 76.5 152t55.5 164.5t22 175.5
q0 55 -14 137q82 82 106 192q-185 0 -262 -84h-27l45 211h27q36 -49 89 -64.5t136 -19.5q4 35 4 64q0 92 5.5 126.5t35.5 94.5q13 24 13 45q0 18 -17.5 37t-58.5 20l8 27h246l-4 -27q-69 -16 -88 -50t-23 -99q-3 -56 -10.5 -85t-38.5 -89q-22 -41 -27 -64q78 5 129.5 18
t79 29.5t51.5 36.5h29z" />
    <glyph glyph-name="periodcentered" unicode="&#x2219;" horiz-adv-x="385" 
d="M367 625q0 -18 -29 -55.5t-62 -37.5q-51 0 -51 70q0 53 34 86t52 33q15 0 28.5 -16t20.5 -39.5t7 -40.5z" />
    <glyph glyph-name="quotesinglbase" unicode="&#x201a;" horiz-adv-x="362" 
d="M266 -29q0 -45 -14.5 -103t-50 -118.5t-94.5 -106t-142 -63.5l12 41q71 21 116.5 68t64 102t18.5 100q0 59 -27 77t-75 22q0 6 -0.5 9t-1.5 7q54 22 116 113q44 -33 61 -64.5t17 -83.5z" />
    <glyph glyph-name="quotedblbase" unicode="&#x201e;" horiz-adv-x="725" 
d="M631 -29q0 -45 -14.5 -101.5t-49.5 -118t-94.5 -107.5t-142.5 -64l12 41q71 21 116.5 68t64 102t18.5 100q0 59 -27.5 77t-75.5 22q0 6 -0.5 9t-1.5 7q53 21 117 113q41 -31 59.5 -64.5t18.5 -83.5zM264 -29q0 -91 -38.5 -169.5t-84.5 -127.5q-40 -43 -85.5 -64
t-92.5 -30l12 41q71 21 116.5 68t64 102t18.5 100q0 59 -27 77t-75 22q0 6 -0.5 9t-1.5 7q54 22 116 113q44 -33 61 -64.5t17 -83.5z" />
    <glyph glyph-name="perthousand" unicode="&#x2030;" horiz-adv-x="2241" 
d="M2183 436q0 -80 -21.5 -157.5t-64.5 -145t-106.5 -108.5t-139.5 -41q-82 0 -134 44.5t-74.5 109.5t-22.5 130q0 95 39 194.5t114 167.5t179 68q138 0 184.5 -87t46.5 -175zM1520 436q0 -80 -21.5 -157.5t-64.5 -145t-106.5 -108.5t-139.5 -41q-118 0 -175 89t-57 195
q0 95 39 194.5t114 167.5t179 68q98 0 149.5 -48.5t67 -107.5t15.5 -106zM1468 1368l-1108 -1384h-63l1110 1384h61zM819 1106q0 -106 -40.5 -211.5t-117 -173.5t-176.5 -68q-117 0 -174 89t-57 196q0 95 39.5 194.5t115 167.5t179.5 68q138 0 184.5 -87.5t46.5 -174.5z
M2085 485q0 70 -27.5 124.5t-89.5 54.5q-84 0 -140.5 -78.5t-83 -186t-26.5 -190.5q0 -118 42.5 -154.5t80.5 -36.5q61 0 118 74.5t91.5 184.5t34.5 208zM1421 485q0 70 -27 124.5t-89 54.5q-85 0 -141.5 -79.5t-82.5 -186t-26 -189.5q0 -117 42.5 -154t80.5 -37
q61 0 118 75t91 184.5t34 207.5zM721 1155q0 70 -27.5 124t-91.5 54q-84 0 -140.5 -79t-83 -185.5t-26.5 -189.5q0 -118 43 -154.5t82 -36.5q61 0 118 74.5t91.5 184.5t34.5 208z" />
    <glyph glyph-name="Acircumflex" unicode="&#xc2;" horiz-adv-x="1130" 
d="M1128 39q-60 -45 -161 -45q-2 0 -19 1.5t-37 2.5t-31.5 1.5t-25.5 0.5h-76q-76 0 -151 -4l4 47q80 5 109.5 20.5t38.5 54.5t14 146l10 221q-51 7 -144 7q-106 0 -178 -7l-73 -133q-32 -56 -61 -115.5t-46.5 -103t-17.5 -57.5q0 -24 29 -30.5t91 -8.5l-6 -41
q-13 0 -47.5 1.5t-73.5 2.5l-59.5 1.5t-46.5 0.5h-174l12 35q59 2 88 5.5t48 13.5t34 29.5t47 74.5l51 86l115 205q8 12 57.5 94.5l144.5 233.5l188 290t153 213h29l-41 -1092q0 -10 -0.5 -16t-0.5 -13q0 -51 18.5 -82.5t72.5 -31.5q42 0 116 31v-39zM829 1034l-4 4
q-50 -71 -163 -250l-27 -44l-48 -79.5l-46.5 -76.5t-22.5 -37q54 -8 150 -8q61 0 137 6zM1133 1355h-43l-82 205l-227 -205h-45l247 326h99z" />
    <glyph glyph-name="Ecircumflex" unicode="&#xca;" horiz-adv-x="961" 
d="M1061 1253q0 -45 -8.5 -99.5t-18.5 -94.5h-30q-8 75 -14.5 98t-20.5 31q-25 16 -183 16q-45 0 -161 -6q-8 -20 -27.5 -89t-28 -103l-16.5 -66l-47 -209q252 0 280 19q16 11 56 110h47q-40 -124 -80 -307h-41q3 12 6.5 45.5t3.5 40.5q0 21 -11 29t-34 10t-108 4l-129 2
l-142 -616l199 -5q35 0 53.5 -0.5t40.5 -1.5q72 0 117.5 12.5t79.5 47t80 112.5l30 -18q-42 -140 -96 -219q-102 8 -321 8q-402 0 -533 -10l-6 47q119 10 144 14.5t40 14.5q23 17 39.5 64t32.5 120l176 754q25 100 25 147q0 27 -17.5 36.5t-58.5 14.5q-36 3 -81 3
q-53 0 -89 -1l8 45h844zM920 1355h-43l-82 205l-227 -205h-45l247 326h99z" />
    <glyph glyph-name="Aacute" unicode="&#xc1;" horiz-adv-x="1130" 
d="M1128 39q-60 -45 -161 -45q-2 0 -19 1.5t-37 2.5t-31.5 1.5t-25.5 0.5h-76q-76 0 -151 -4l4 47q80 5 109.5 20.5t38.5 54.5t14 146l10 221q-51 7 -144 7q-106 0 -178 -7l-73 -133q-32 -56 -61 -115.5t-46.5 -103t-17.5 -57.5q0 -24 29 -30.5t91 -8.5l-6 -41
q-13 0 -47.5 1.5t-73.5 2.5l-59.5 1.5t-46.5 0.5h-174l12 35q59 2 88 5.5t48 13.5t34 29.5t47 74.5l51 86l115 205q8 12 57.5 94.5l144.5 233.5l188 290t153 213h29l-41 -1092q0 -10 -0.5 -16t-0.5 -13q0 -51 18.5 -82.5t72.5 -31.5q42 0 116 31v-39zM829 1034l-4 4
q-50 -71 -163 -250l-27 -44l-48 -79.5l-46.5 -76.5t-22.5 -37q54 -8 150 -8q61 0 137 6zM1160 1681l-299 -326h-50l218 326h131z" />
    <glyph glyph-name="Edieresis" unicode="&#xcb;" horiz-adv-x="961" 
d="M1061 1253q0 -45 -8.5 -99.5t-18.5 -94.5h-30q-8 75 -14.5 98t-20.5 31q-25 16 -183 16q-45 0 -161 -6q-8 -20 -27.5 -89t-28 -103l-16.5 -66l-47 -209q252 0 280 19q16 11 56 110h47q-40 -124 -80 -307h-41q3 12 6.5 45.5t3.5 40.5q0 21 -11 29t-34 10t-108 4l-129 2
l-142 -616l199 -5q35 0 53.5 -0.5t40.5 -1.5q72 0 117.5 12.5t79.5 47t80 112.5l30 -18q-42 -140 -96 -219q-102 8 -321 8q-402 0 -533 -10l-6 47q119 10 144 14.5t40 14.5q23 17 39.5 64t32.5 120l176 754q25 100 25 147q0 27 -17.5 36.5t-58.5 14.5q-36 3 -81 3
q-53 0 -89 -1l8 45h844zM988 1466q0 -30 -22 -53t-52 -23t-52 23t-22 53q0 29 21.5 51.5t52.5 22.5q19 0 36.5 -10.5t27.5 -28t10 -35.5zM691 1466q0 -31 -21.5 -53.5t-52.5 -22.5q-29 0 -51.5 22.5t-22.5 53.5q0 32 21 53t53 21q31 0 52.5 -22.5t21.5 -51.5z" />
    <glyph glyph-name="Egrave" unicode="&#xc8;" horiz-adv-x="961" 
d="M1061 1253q0 -45 -8.5 -99.5t-18.5 -94.5h-30q-8 75 -14.5 98t-20.5 31q-25 16 -183 16q-45 0 -161 -6q-8 -20 -27.5 -89t-28 -103l-16.5 -66l-47 -209q252 0 280 19q16 11 56 110h47q-40 -124 -80 -307h-41q3 12 6.5 45.5t3.5 40.5q0 21 -11 29t-34 10t-108 4l-129 2
l-142 -616l199 -5q35 0 53.5 -0.5t40.5 -1.5q72 0 117.5 12.5t79.5 47t80 112.5l30 -18q-42 -140 -96 -219q-102 8 -321 8q-402 0 -533 -10l-6 47q119 10 144 14.5t40 14.5q23 17 39.5 64t32.5 120l176 754q25 100 25 147q0 27 -17.5 36.5t-58.5 14.5q-36 3 -81 3
q-53 0 -89 -1l8 45h844zM841 1355h-51l-231 326h131z" />
    <glyph glyph-name="Iacute" unicode="&#xcd;" horiz-adv-x="641" 
d="M797 1249l-2 -43q-90 -2 -122 -10t-45 -32t-28 -91l-194 -860q-15 -63 -15 -94q0 -36 29.5 -58t122.5 -22q54 0 104 27l21 -21q-37 -26 -69 -38.5t-87 -12.5q-17 0 -130 6t-134 6q-16 0 -103 -2t-102 -2l12 41q77 2 101 5t44 14.5t32.5 37t23.5 72.5l207 918q10 40 10 55
q0 26 -11 37t-43.5 15t-131.5 9l12 45q80 -6 279 -6q17 0 110 2t109 2zM787 1681l-299 -326h-50l218 326h131z" />
    <glyph glyph-name="Icircumflex" unicode="&#xce;" horiz-adv-x="641" 
d="M797 1249l-2 -43q-90 -2 -122 -10t-45 -32t-28 -91l-194 -860q-15 -63 -15 -94q0 -36 29.5 -58t122.5 -22q54 0 104 27l21 -21q-37 -26 -69 -38.5t-87 -12.5q-17 0 -130 6t-134 6q-16 0 -103 -2t-102 -2l12 41q77 2 101 5t44 14.5t32.5 37t23.5 72.5l207 918q10 40 10 55
q0 26 -11 37t-43.5 15t-131.5 9l12 45q80 -6 279 -6q17 0 110 2t109 2zM760 1355h-43l-82 205l-227 -205h-45l247 326h99z" />
    <glyph glyph-name="Idieresis" unicode="&#xcf;" horiz-adv-x="641" 
d="M797 1249l-2 -43q-90 -2 -122 -10t-45 -32t-28 -91l-194 -860q-15 -63 -15 -94q0 -36 29.5 -58t122.5 -22q54 0 104 27l21 -21q-37 -26 -69 -38.5t-87 -12.5q-17 0 -130 6t-134 6q-16 0 -103 -2t-102 -2l12 41q77 2 101 5t44 14.5t32.5 37t23.5 72.5l207 918q10 40 10 55
q0 26 -11 37t-43.5 15t-131.5 9l12 45q80 -6 279 -6q17 0 110 2t109 2zM828 1466q0 -30 -22 -53t-52 -23t-52 23t-22 53q0 29 21.5 51.5t52.5 22.5q19 0 36.5 -10.5t27.5 -28t10 -35.5zM531 1466q0 -31 -21.5 -53.5t-52.5 -22.5q-29 0 -51.5 22.5t-22.5 53.5q0 32 21 53
t53 21q31 0 52.5 -22.5t21.5 -51.5z" />
    <glyph glyph-name="Igrave" unicode="&#xcc;" horiz-adv-x="641" 
d="M797 1249l-2 -43q-90 -2 -122 -10t-45 -32t-28 -91l-194 -860q-15 -63 -15 -94q0 -36 29.5 -58t122.5 -22q54 0 104 27l21 -21q-37 -26 -69 -38.5t-87 -12.5q-17 0 -130 6t-134 6q-16 0 -103 -2t-102 -2l12 41q77 2 101 5t44 14.5t32.5 37t23.5 72.5l207 918q10 40 10 55
q0 26 -11 37t-43.5 15t-131.5 9l12 45q80 -6 279 -6q17 0 110 2t109 2zM681 1355h-51l-231 326h131z" />
    <glyph glyph-name="Oacute" unicode="&#xd3;" 
d="M1397 719q0 -133 -52.5 -266.5t-145.5 -239.5t-220.5 -168.5t-273.5 -62.5q-133 0 -234 50t-165 131.5t-94 176t-30 182.5q0 196 101 370.5t265.5 278t344.5 103.5q117 0 210.5 -44t159 -121t100 -178t34.5 -212zM1249 766q0 129 -44 235t-128.5 167t-195.5 61
q-104 0 -201.5 -51t-177 -147t-125 -231t-45.5 -294q0 -146 51 -256t138 -170t192 -60q73 0 161 37t158 107q124 123 170.5 305.5t46.5 296.5zM1094 1681l-299 -326h-50l218 326h131z" />
    <glyph glyph-name="Ocircumflex" unicode="&#xd4;" 
d="M1397 719q0 -133 -52.5 -266.5t-145.5 -239.5t-220.5 -168.5t-273.5 -62.5q-133 0 -234 50t-165 131.5t-94 176t-30 182.5q0 196 101 370.5t265.5 278t344.5 103.5q117 0 210.5 -44t159 -121t100 -178t34.5 -212zM1249 766q0 129 -44 235t-128.5 167t-195.5 61
q-104 0 -201.5 -51t-177 -147t-125 -231t-45.5 -294q0 -146 51 -256t138 -170t192 -60q73 0 161 37t158 107q124 123 170.5 305.5t46.5 296.5zM1067 1355h-43l-82 205l-227 -205h-45l247 326h99z" />
    <glyph glyph-name="Ograve" unicode="&#xd2;" 
d="M1397 719q0 -133 -52.5 -266.5t-145.5 -239.5t-220.5 -168.5t-273.5 -62.5q-133 0 -234 50t-165 131.5t-94 176t-30 182.5q0 196 101 370.5t265.5 278t344.5 103.5q117 0 210.5 -44t159 -121t100 -178t34.5 -212zM1249 766q0 129 -44 235t-128.5 167t-195.5 61
q-104 0 -201.5 -51t-177 -147t-125 -231t-45.5 -294q0 -146 51 -256t138 -170t192 -60q73 0 161 37t158 107q124 123 170.5 305.5t46.5 296.5zM1044 1355h-51l-231 326h131z" />
    <glyph glyph-name="Uacute" unicode="&#xda;" horiz-adv-x="1323" 
d="M1501 1212q-83 -2 -119.5 -19.5t-56.5 -69.5t-53 -195l-115 -502q-23 -104 -63 -198.5t-137 -174.5t-257 -80q-70 0 -165.5 29.5t-174.5 120.5t-79 254q0 73 34 241l103 474q14 65 14 84q0 23 -23.5 30.5t-127.5 7.5l8 37h473l-12 -37q-84 -2 -120 -13t-51.5 -46
t-37.5 -135l-76 -340q-45 -200 -45 -301q0 -127 55 -206.5t129 -111.5t137 -32q122 0 198 69.5t112.5 166t64.5 224.5l137 605q15 56 15 92q0 18 -40 22t-116 4l8 39h381v-39zM1129 1681l-299 -326h-50l218 326h131z" />
    <glyph glyph-name="Ucircumflex" unicode="&#xdb;" horiz-adv-x="1323" 
d="M1501 1212q-83 -2 -119.5 -19.5t-56.5 -69.5t-53 -195l-115 -502q-23 -104 -63 -198.5t-137 -174.5t-257 -80q-70 0 -165.5 29.5t-174.5 120.5t-79 254q0 73 34 241l103 474q14 65 14 84q0 23 -23.5 30.5t-127.5 7.5l8 37h473l-12 -37q-84 -2 -120 -13t-51.5 -46
t-37.5 -135l-76 -340q-45 -200 -45 -301q0 -127 55 -206.5t129 -111.5t137 -32q122 0 198 69.5t112.5 166t64.5 224.5l137 605q15 56 15 92q0 18 -40 22t-116 4l8 39h381v-39zM1102 1355h-43l-82 205l-227 -205h-45l247 326h99z" />
    <glyph glyph-name="Ugrave" unicode="&#xd9;" horiz-adv-x="1323" 
d="M1501 1212q-83 -2 -119.5 -19.5t-56.5 -69.5t-53 -195l-115 -502q-23 -104 -63 -198.5t-137 -174.5t-257 -80q-70 0 -165.5 29.5t-174.5 120.5t-79 254q0 73 34 241l103 474q14 65 14 84q0 23 -23.5 30.5t-127.5 7.5l8 37h473l-12 -37q-84 -2 -120 -13t-51.5 -46
t-37.5 -135l-76 -340q-45 -200 -45 -301q0 -127 55 -206.5t129 -111.5t137 -32q122 0 198 69.5t112.5 166t64.5 224.5l137 605q15 56 15 92q0 18 -40 22t-116 4l8 39h381v-39zM1023 1355h-51l-231 326h131z" />
    <glyph glyph-name="dotlessi" unicode="&#x131;" horiz-adv-x="426" 
d="M410 174q-40 -54 -83.5 -95t-82.5 -66t-56 -25q-11 0 -28 16.5t-17 58.5q0 55 41 213l62 242q24 98 30 131q-35 -21 -67 -48.5t-64 -63.5l-22 22q60 72 108.5 114.5t81 58.5t52.5 16q24 0 24 -33q0 -28 -45 -205l-59 -236q-13 -48 -23 -99t-10 -71q0 -12 4 -22
q32 16 58 39.5t69 71.5z" />
    <glyph glyph-name="circumflex" unicode="&#x2c6;" horiz-adv-x="682" 
d="M725 868h-43l-82 205l-227 -205h-45l247 326h99z" />
    <glyph glyph-name="tilde" unicode="&#x2dc;" horiz-adv-x="682" 
d="M811 1081q-15 -63 -39 -102t-55 -57.5t-66 -18.5q-46 0 -121 43q-35 23 -56.5 33t-43.5 10q-56 0 -92 -86h-41q60 176 164 176q44 0 102 -35q88 -49 117 -49q61 0 90 86h41z" />
    <glyph glyph-name="macron" unicode="&#x2c9;" horiz-adv-x="682" 
d="M709 1044l-19 -57h-397l20 57h396z" />
    <glyph glyph-name="breve" unicode="&#x2d8;" horiz-adv-x="682" 
d="M797 1151q-35 -82 -68 -140t-83 -100.5t-120 -42.5q-86 0 -116.5 60t-30.5 137q0 35 6 86h39q-2 -20 -2 -28q0 -63 31.5 -108.5t87.5 -45.5q122 0 215 182h41z" />
    <glyph glyph-name="dotaccent" unicode="&#x2d9;" horiz-adv-x="682" 
d="M541 979q0 -30 -22 -53t-54 -23q-28 0 -51 22t-23 54t21 53t53 21q19 0 37.5 -10.5t28.5 -28t10 -35.5z" />
    <glyph glyph-name="ring" unicode="&#x2da;" horiz-adv-x="682" 
d="M664 1026q0 -42 -21.5 -77.5t-57 -56t-77.5 -20.5q-61 0 -107.5 45t-46.5 109q0 66 46 110t108 44q44 0 79.5 -20.5t56 -56.5t20.5 -77zM616 1026q0 47 -31 78t-77 31q-44 0 -75.5 -31.5t-31.5 -77.5q0 -43 32.5 -75.5t74.5 -32.5q46 0 77 32t31 76z" />
    <glyph glyph-name="cedilla" unicode="&#xb8;" horiz-adv-x="682" 
d="M483 -201q0 -93 -110.5 -156.5t-265.5 -63.5q-25 0 -37 1l14 39q105 5 170.5 33t92 62.5t26.5 62.5q0 52 -39.5 65t-104.5 13q30 31 68 88q5 5 12.5 15t22 31.5l16.5 24.5l53 -2q-21 -22 -53 -73q70 -11 102.5 -50.5t32.5 -89.5z" />
    <glyph glyph-name="hungarumlaut" unicode="&#x2dd;" horiz-adv-x="682" 
d="M907 1194l-297 -326h-49l217 326h129zM698 1194l-297 -326h-49l217 326h129z" />
    <glyph glyph-name="ogonek" unicode="&#x2db;" horiz-adv-x="682" 
d="M406 14q-69 -53 -137 -132t-68 -165q0 -53 35.5 -83.5t89.5 -30.5q21 0 47 8l18 -39q-54 -33 -89.5 -46t-72.5 -13q-85 0 -118 52t-33 95q0 106 83 199.5t183 154.5h62z" />
    <glyph glyph-name="caron" unicode="&#x2c7;" horiz-adv-x="682" 
d="M799 1194l-250 -326h-90l-58 326h43l84 -203l224 203h47z" />
    <glyph glyph-name="Lslash" unicode="&#x141;" horiz-adv-x="938" 
d="M985 190q-68 -95 -108 -194q-10 1 -62 1q-60 0 -90 -0.5t-61 -0.5q-30 0 -184 2t-179 2q-22 0 -145 -2t-144 -2l15 43q21 0 82.5 6.5t85.5 17.5q16 7 32 60.5t31 126t21 88.5l38 174l-215 -139l15 71l215 142l65 284l29.5 153.5t19.5 125.5q0 28 -34.5 38t-128.5 19l4 41
q109 -1 257 -1q146 0 247 1l-7 -41q-141 -8 -161 -22q-11 -8 -21 -37.5t-20.5 -70.5t-28.5 -120l-64 -284l445 289l-12 -72l-447 -289l-47 -211q-10 -47 -27.5 -141.5t-17.5 -124.5q0 -33 13 -50.5t60 -25.5t140 -8q91 0 142 11t96 44.5t112 110.5z" />
    <glyph glyph-name="lslash" unicode="&#x142;" horiz-adv-x="406" 
d="M573 909l-12 -71l-203 -129l-90 -435q-18 -86 -18 -133t24 -47q18 0 71 33.5t101 71.5v-37q-84 -76 -156 -125t-95 -49q-13 0 -33.5 20.5t-20.5 61.5q0 39 7.5 90t19.5 108l78 385l-158 -102l12 72l160 102l90 436q3 6 13 61.5t10 77.5q0 16 -8 19.5t-35 3.5l-107 -2
l4 31q17 2 74 8t76.5 8.5l71.5 9.5q6 2 14 2q18 0 18 -20q0 -25 -13.5 -112.5t-18.5 -102.5l-76 -365z" />
    <glyph glyph-name="Scaron" unicode="&#x160;" horiz-adv-x="768" 
d="M858 1174q-10 -63 -22 -170h-31q-7 52 -16.5 81.5t-28.5 47.5q-3 5 -32.5 29.5t-71.5 45.5t-81 21q-38 0 -82.5 -20t-77 -65t-32.5 -118q0 -66 21.5 -120.5t61.5 -108t112 -135.5q81 -93 119 -163t38 -157q0 -108 -60.5 -193t-167 -131.5t-237.5 -46.5q-138 0 -200 68
q0 20 11.5 67.5t31.5 47.5q23 0 51 -33q49 -49 82.5 -72.5t83.5 -23.5q48 0 114 26t115 87t49 153q0 62 -21.5 114t-57.5 98.5t-113 133.5q-74 85 -112 154t-38 163q0 157 116 238.5t236 81.5q148 0 240 -100zM897 1681l-250 -326h-90l-58 326h43l84 -203l224 203h47z" />
    <glyph glyph-name="scaron" unicode="&#x161;" horiz-adv-x="512" 
d="M541 696q0 -19 -12 -47t-29 -28q-8 0 -23 6q-90 30 -127 30q-40 0 -67 -29.5t-27 -60.5q0 -43 92 -143q60 -65 82.5 -103.5t22.5 -97.5q0 -65 -39.5 -119.5t-102 -86t-129.5 -31.5q-54 0 -93.5 29.5t-39.5 45.5q0 11 24 54t44 55q24 -113 112 -113q52 0 97 42.5t45 84.5
q0 59 -72 133l-45 50q-48 51 -64 82.5t-16 68.5q0 63 44.5 116.5t114.5 84.5t144 31q64 0 64 -54zM715 1194l-250 -326h-90l-58 326h43l84 -203l224 203h47z" />
    <glyph glyph-name="Zcaron" unicode="&#x17d;" horiz-adv-x="1087" 
d="M1122 1253l-385 -518l-87.5 -120l-76.5 -107.5l-84.5 -119l-109.5 -152.5l-133 -187h293q132 0 235 7t158 18q28 4 55 23t84 69l43 2q-33 -53 -43 -71t-45 -97h-999l188 250l459 620q108 146 231 332h-532q-19 -17 -73.5 -78.5t-55.5 -62.5h-37q42 75 102 192h813z
M1001 1681l-250 -326h-90l-58 326h43l84 -203l224 203h47z" />
    <glyph glyph-name="zcaron" unicode="&#x17e;" horiz-adv-x="705" 
d="M801 713l-606 -609l4 -4q32 19 69 19q17 0 120 -19.5t116 -19.5q49 0 85.5 27t76.5 69l26 -24q-37 -48 -110 -107t-154 -59q-20 0 -41.5 4.5t-112.5 25.5q-38 11 -90 11q-63 0 -125 -41h-53l635 643q-47 0 -68 6q-103 24 -137 24q-110 0 -182 -159q-21 21 -21 26
q20 56 83 140t171 84q15 0 109 -17.5t104 -17.5q41 0 82 39zM831 1194l-250 -326h-90l-58 326h43l84 -203l224 203h47z" />
    <glyph glyph-name="brokenbar" unicode="&#xa6;" horiz-adv-x="1087" 
d="M666 666h-97v716h97v-716zM666 -358h-97v716h97v-716z" />
    <glyph glyph-name="Eth" unicode="&#xd0;" 
d="M1403 647q0 -184 -80.5 -319.5t-192.5 -212.5q-80 -55 -184.5 -82t-193.5 -33t-191 -6h-559v47q26 -1 68 -1q74 0 106.5 17t49.5 63t42 167l66 309h-221l14 55h221l64 297q30 149 30 205q0 32 -24.5 40t-104.5 11l-123 4l9 43h424q229 0 403.5 -61.5t275.5 -197
t101 -345.5zM1243 670q0 155 -68 274.5t-196 187.5t-297 68q-26 0 -39 -0.5t-29 -1.5q-1 -5 -41 -171t-49 -208l-35 -168h359l-14 -55h-359l-16 -80q0 1 -22 -103t-37 -186.5t-15 -101.5q0 -50 52 -66t196 -16q77 0 145.5 9.5t134 37.5t121.5 78q61 55 107.5 130t74 170.5
t27.5 201.5z" />
    <glyph glyph-name="eth" unicode="&#xf0;" horiz-adv-x="705" 
d="M758 1212l-221 -116q54 -88 84 -188.5t39.5 -188.5t9.5 -156q0 -179 -46.5 -283t-123.5 -198q-36 -44 -63 -66t-45 -27t-44 -5q-68 0 -122 41t-82.5 113t-28.5 163q0 98 53.5 201t127 172t128.5 69q72 0 135 -77l4 4q-2 41 -7 97.5t-24.5 138t-56.5 157.5l-225 -119
l-21 39l226 119q-53 105 -150 174l39 22q102 -66 168 -165l223 118zM567 395q0 65 -23.5 124t-68.5 96.5t-104 37.5q-34 0 -53.5 -12.5t-34.5 -42.5q-66 -114 -66 -250q0 -55 15 -119t51.5 -111.5t93.5 -47.5q64 0 86 28q58 67 81 153.5t23 143.5z" />
    <glyph glyph-name="Yacute" unicode="&#xdd;" horiz-adv-x="1044" 
d="M1249 1210q-64 -2 -93 -13t-74 -60t-150 -183l-172 -217q-46 -57 -63.5 -84.5t-30.5 -64.5t-29 -101l-58 -236t-32 -167q0 -27 24 -36t80 -9q64 0 119 10l-6 -39q-44 -12 -113 -12q-14 0 -97 2t-97 2q-30 0 -54.5 -0.5l-70.5 -1.5t-87.5 -2.5t-56.5 -1.5l7 41h28
q68 0 101 6t55 31q17 22 37 95.5t41 166.5l63 280l-30 112l-28.5 110.5l-35.5 141t-35 130.5q-16 62 -46 80.5t-112 21.5l5 37h426l-11 -43q-68 -2 -98.5 -10t-30.5 -37q0 -27 31 -153l22.5 -90t34.5 -130l31 -112l137.5 166.5t173 222.5t72.5 123q0 24 -94 24h-29l4 39
q24 0 92 -2t97 -2q77 0 153 6v-41zM990 1681l-299 -326h-50l218 326h131z" />
    <glyph glyph-name="yacute" unicode="&#xfd;" horiz-adv-x="725" 
d="M711 600q0 -140 -83 -336.5t-211 -381t-261.5 -303t-227.5 -118.5q-78 0 -118 68l65 70q31 -29 48.5 -39.5t53.5 -10.5q59 0 157 76t172.5 187t74.5 213q0 79 -33.5 226.5t-77 259.5t-71.5 112q-35 0 -111 -170l-29 26q49 115 104 192t89 77q20 0 53.5 -60.5t65.5 -156.5
t58.5 -225t33.5 -265h4q178 313 178 496q0 49 -15.5 67.5t-31.5 18.5q-18 0 -29 -17l-20 21q22 42 58 81.5t65 39.5q15 0 27 -50.5t12 -97.5zM775 1194l-299 -326h-50l218 326h131z" />
    <glyph glyph-name="Thorn" unicode="&#xde;" horiz-adv-x="1024" 
d="M1024 645q0 -80 -43 -158t-139 -130t-250 -52q-32 0 -86 4.5l-109 9.5l-51 -251q24 -10 62 -17t74.5 -10t45.5 -4l-8 -39q-61 3 -149.5 4.5t-130.5 1.5q-101 0 -203 -4l2 41q16 4 47 8.5t59 9.5q25 10 40.5 32.5t21.5 43.5q20 54 76 284t104.5 459t48.5 259
q0 34 -30.5 49.5t-133.5 15.5h-34l12 41q22 0 149 -4t150 -4q6 0 55 1.5l98.5 3t55.5 1.5v-41q-155 -18 -170 -80l-37 -141q197 -3 302.5 -62t138 -132t32.5 -140zM885 649q0 68 -31.5 133t-108.5 108.5t-206 43.5l-129 -565q65 -13 131 -13q130 0 207.5 49t107 116
t29.5 128z" />
    <glyph glyph-name="thorn" unicode="&#xfe;" horiz-adv-x="682" 
d="M692 526q0 -106 -46 -233t-129.5 -215t-190.5 -88q-56 0 -105 24l-78 -366q-12 -57 -12 -84q0 -41 38.5 -55.5t131.5 -14.5l-4 -33h-104q-6 0 -43 2t-46 2q-30 0 -112 -2t-92 -2l-2 35q66 5 88 12t30.5 30t24.5 95l324 1547q18 95 18 120q0 16 -7.5 19.5t-35.5 3.5
l-107 -2l7 31q104 8 219 26q6 2 14 2q19 0 19 -20q0 -68 -35 -205q-13 -53 -32 -139.5t-30 -143l-31.5 -162t-21.5 -108.5l25 16l84 62q91 68 104 68q19 0 52 -24.5t59 -75t26 -122.5zM586 510q0 46 -4 72q0 20 -34.5 43.5t-45.5 23.5q-20 0 -168 -90l-90 -432
q25 -49 47 -63.5t57 -14.5q66 0 113 55t73.5 133t39 154.5t12.5 118.5z" />
    <glyph glyph-name="minus" unicode="&#x2212;" 
d="M1343 524h-1146v94h1146v-94z" />
    <glyph glyph-name="multiply" unicode="&#xd7;" 
d="M1292 1282l-454 -455l450 -450l-67 -66l-449 451l-453 -451l-67 66l453 450l-453 455l65 68l455 -455l455 455z" />
    <glyph glyph-name="onesuperior" unicode="&#xb9;" horiz-adv-x="575" 
d="M584 1266l-117 -445l-25.5 -89t-15.5 -68q62 -19 137 -29l10 -27h-147q-86 0 -127 -4q14 31 25.5 65t23 73t12.5 46l111 418q-60 23 -145 27l10 29h119q82 0 129 4z" />
    <glyph glyph-name="twosuperior" unicode="&#xb2;" horiz-adv-x="575" 
d="M672 1098q0 -68 -43 -123.5t-148 -143.5l-59 -49l-82.5 -71t-52.5 -45l4 -4q29 3 123.5 4t107.5 4q55 1 70.5 4.5t23.5 15.5l46 4l-56 -86h-342q-67 0 -117 -12l13 33q35 13 73 44t150 134q83 75 133.5 140.5t50.5 144.5q0 65 -38.5 98t-88.5 33q-103 0 -147 -150l-43 21
q19 75 78 124.5t143 49.5q50 0 97 -22.5t75.5 -61.5t28.5 -86z" />
    <glyph glyph-name="threesuperior" unicode="&#xb3;" horiz-adv-x="575" 
d="M653 1161q0 -46 -37 -84.5t-94 -79.5q72 -14 94.5 -54t22.5 -75q0 -68 -50.5 -131t-131 -101t-162.5 -38q-70 0 -98 21.5t-41 50.5q27 10 45 10q14 0 22 -2q28 -45 88 -45q45 0 102 27.5t96.5 74.5t39.5 101q0 104 -111 104q-19 0 -88 -16l17 39q85 26 140.5 73.5
t55.5 98.5q0 30 -23.5 52.5t-62.5 22.5q-37 0 -64 -17.5t-67 -55.5q-27 -27 -33 -31q1 3 3 18t3 21q10 45 73.5 84t125.5 39q59 0 97 -29t38 -78z" />
    <glyph glyph-name="onehalf" unicode="&#xbd;" horiz-adv-x="1386" 
d="M1389 1380l-1115 -1396h-65l1114 1396h66zM580 1266q-1 -7 -5.5 -24.5t-9.5 -33.5l-16 -63q0 -2 -5 -21t-11.5 -41.5t-10.5 -40.5l-88 -327l-12 -51q62 -19 137 -29l10 -27h-147q-86 0 -127 -4q22 46 48 136.5t26 97.5l98 368q-60 23 -145 27l10 29h119q81 0 129 4z
M1276 489q0 -65 -33.5 -111t-93.5 -99q-205 -175 -256 -226q50 4 158 4l75 4l53 3t25 4.5t17 13.5l47 4l-58 -86h-342q-65 0 -116 -12l12 32q55 24 149 109q99 88 151 142t79.5 104.5t27.5 107.5q0 44 -19 74t-47.5 43.5t-60.5 13.5q-65 0 -98 -47.5t-49 -101.5l-41 20
q21 79 80 126.5t139 47.5q81 0 141 -48t60 -122z" />
    <glyph glyph-name="onequarter" unicode="&#xbc;" horiz-adv-x="1386" 
d="M1397 1380l-1114 -1396h-66l1114 1396h66zM588 1266l-58 -224l-59 -221l-15 -59.5l-26 -97.5q62 -19 135 -29l13 -27h-148q-86 0 -127 -4q18 39 34.5 93.5l27.5 90.5l110 418q-60 23 -145 27l10 29h119q82 0 129 4zM1298 311l-18 -61h-106l-29 -100q-2 -2 -17.5 -59
l-25.5 -95q-63 -3 -101 -8l78 260l-297 -4q75 131 183 219.5t262 185.5q29 19 67 19l-98 -336q-4 -12 -5.5 -16t-2.5 -9zM1176 565l-5 4q-116 -77 -174.5 -132t-122.5 -134l220 2l24 82q2 3 9.5 28l22 71l19 61t7.5 18z" />
    <glyph glyph-name="threequarters" unicode="&#xbe;" horiz-adv-x="1386" 
d="M1397 1380l-1114 -1396h-66l1114 1396h66zM1298 311l-18 -61h-106l-29 -100q-2 -2 -17.5 -59l-25.5 -95q-63 -3 -101 -8l78 260l-297 -4q75 131 183 219.5t262 185.5q29 19 67 19l-100 -336q-3 -9 -6 -25zM655 1161q0 -45 -37.5 -85.5t-93.5 -78.5q72 -14 95.5 -54
t23.5 -75q0 -68 -50.5 -131t-131 -101t-162.5 -38q-108 0 -139 72q27 10 45 10q14 0 22 -2q28 -45 88 -45q44 0 101 27.5t97 75t40 100.5q0 104 -111 104q-19 0 -88 -16l17 39q84 26 140 73.5t56 98.5q0 31 -22.5 53t-63.5 22q-38 0 -64.5 -17.5t-66.5 -55.5
q-28 -28 -33 -31q1 3 7 39q4 27 35 55t77 48t86 20q58 0 95.5 -28.5t37.5 -78.5zM1176 565l-5 4q-120 -80 -175.5 -133t-121.5 -133l220 2l24 82q3 5 29 90t29 88z" />
    <glyph glyph-name="uni00AD" unicode="&#xad;" horiz-adv-x="725" 
d="M717 485q0 -2 -45 -85t-47 -87q-2 0 -66 5t-117.5 6.5t-111.5 1.5q-66 0 -123 -7q-27 -20 -27 -28q-11 -11 -29.5 -28t-23.5 -17q-23 0 -23 10q0 2 11 19t20.5 29.5l20.5 27.5q44 90 92 90l266 -2q55 0 76 5.5t43 29.5q6 3 22 22t29 19q14 0 33 -11z" />
    <glyph glyph-name="uni00AF" unicode="&#xaf;" horiz-adv-x="1024" 
d="M1024 1440h-1024v102h1024v-102z" />
    <glyph glyph-name="uni00B7" unicode="&#xb7;" horiz-adv-x="385" 
d="M367 625q0 -18 -29 -55.5t-62 -37.5q-51 0 -51 70q0 53 34 86t52 33q15 0 28.5 -16t20.5 -39.5t7 -40.5z" />
    <glyph glyph-name="uni2044" unicode="&#x2044;" horiz-adv-x="129" 
d="M817 1380l-1114 -1396h-65l1114 1396h65z" />
    <glyph glyph-name="currency" unicode="&#xa4;" horiz-adv-x="1493" 
d="M1372 266l-65 -65l-133 133q-75 -53 -139 -81t-163 -28q-74 0 -129.5 17t-92.5 39t-79 53l-133 -133l-67 65l135 133q-31 42 -53 79t-39 92.5t-17 129.5q0 73 17 128.5t35.5 87t56.5 85.5l-135 132l67 67l133 -131q67 48 134.5 77.5t166.5 29.5q70 0 125 -16t92 -37.5
t85 -55.5l133 133l65 -67l-133 -132q44 -56 75.5 -128.5t31.5 -176.5q0 -69 -15 -122.5t-38 -92.5t-54 -82zM1251 700q0 101 -51 189t-139 139t-189 51t-188.5 -51t-138.5 -139t-51 -189t51 -188.5t138.5 -138.5t188.5 -51t189 51t139 138.5t51 188.5z" />
    </font>
</defs>
</svg>
